<svg id="colledivino-logo" height="{{ site.logo_height }}" version="1.1" viewBox="0 0 1587.4 1122.52" xml:space="preserve"><g id="g70" transform="matrix(1.3333333,0,0,-1.3333333,0,1122.52)"><g id="g72" transform="scale(0.13) translate(-3300, -1500)"><path style="fill:none;fill-opacity:1;fill-rule:nonzero;stroke:none" id="path74" d="M 0,8418.89 H 11905.5 V 0 H 0 v 8418.89 0"/><path style="fill:#5e5347;fill-opacity:1;fill-rule:evenodd;stroke:none" id="path84" d="m 7541.88,3782.48 v 409.06 h 1085.64 z"/><path style="fill:#5e5347;fill-opacity:1;fill-rule:nonzero;stroke:none" id="path86" d="m 8772.16,4828.18 c -0.57,1 -0.68,2.61 -1.07,3.93 -0.48,1.64 -0.04,2.72 -0.51,4.37 -0.6,2.04 -1.8,5 -3.15,7.08 -2.02,-0.26 -3.82,-0.83 -3.57,-2.68 0.2,-1.48 1.94,-1.54 2.44,-2.95 0.49,-1.38 0.15,-2.67 -0.67,-3.75 1.1,0.04 2.16,-0.04 2.94,-0.97 1.84,-2.2 2.31,-5.12 0.5,-7.35 -0.73,-0.88 -2.12,-0.58 -2.4,-1.68 -0.25,-0.96 0.21,-1.64 0.85,-2.4 1.04,-1.22 3.04,0.29 4,-0.99 0.8,-1.07 -0.62,-2.47 0.34,-3.4 0.92,-0.89 2,-0.45 3.28,-0.32 2.67,0.25 4.88,0.9 6.02,3.33 -3.31,2.7 -8.15,3.68 -11.3,4.37 0.71,1.19 1.41,2.44 2.3,3.41 z m -102.48,306.62 c -1.41,-0.31 -2.9,-0.97 -4.02,-1.66 -1.75,-1.07 -1.78,-4.35 -1.77,-6.93 1.69,2.96 3.63,5.82 5.79,8.59 z m -6.75,-68.03 h -4.67 c 1.09,-0.56 2.24,-0.96 3.6,-0.74 z m -12.82,-157.36 c 1.05,0.12 2.21,0.29 3,-0.43 1.79,-1.64 0.71,-3.77 1.56,-6.04 0.52,-1.38 0.1,-3.22 1.54,-3.44 1.06,-0.15 1.93,0.36 2.38,1.32 0.41,0.87 0.16,1.61 -0.29,2.46 -0.65,1.2 -2.64,0.47 -3.01,1.78 -0.49,1.67 3.11,1.44 3.12,3.17 0.01,1.22 -0.72,1.81 -1.51,2.74 -0.99,1.16 -2.19,1.12 -3.18,2.29 -0.82,0.96 -1.65,1.56 -1.57,2.83 0.14,1.94 4.19,0.48 4.38,2.42 0.22,2.25 -3.19,3.05 -5.32,2.29 -2.41,-0.85 -1.11,-3.77 -1.71,-6.25 0.45,-1.91 0.98,-3.76 0.61,-5.14 z m 32.77,-36.47 c -1.61,-0.36 -2.98,-1.03 -3.64,-2.06 -1.2,-1.9 -2.85,-4.82 -0.78,-5.69 1.54,-0.65 2.46,2.5 3.94,1.71 2.11,-3.06 -0.85,-4.81 0.49,-6.04 1.52,-1.42 3.51,0.84 4.65,2.57 1.03,1.58 -0.45,3.28 0.68,4.79 0.83,1.1 2.03,0.92 3,1.9 1.67,1.69 -0.78,2.87 -4.09,3.05 -1.57,-0.62 -2.76,-0.53 -4.25,-0.23 z m 90.4,-30.05 c 0.08,-1.01 -0.18,-2.02 0.38,-3.03 0.97,-1.74 1.48,-3.96 3.43,-3.82 1.12,0.04 1.59,1.01 1.76,2.18 -2.35,0.87 -3.67,3.32 -5.57,4.67 z m 24.12,-14.75 c -1.64,-2.42 0.75,-2.68 3.33,-3.37 -1.44,0.9 -2.58,2.04 -3.33,3.37 z m 75.51,-31.1 c 0.43,-1.07 0.96,-2.16 1.55,-3.24 l 3.02,1.65 -1.32,2.29 z m 13.85,-5.83 c -1.2,1.5 -2.27,2.2 -2.48,3.55 -0.62,3.01 -1.3,4.53 -2.68,3.63 -1.35,-0.87 -0.3,-2.67 -1.35,-3.88 -2,-1.08 -2.76,-1.5 -2.79,-2.47 -0.06,-1.57 1.51,-1.86 2.81,-2.65 2.35,0.3 4.48,0.91 6.49,1.82 z m -18.45,2.48 c 2,-1.21 3.17,-1.07 4.4,-0.64 -1.26,1.84 -1.93,2.75 -3.34,2.83 -1.12,-0.83 -1.12,-1.48 -1.06,-2.19 z m -115.24,400.48 c -1.98,0 -4.18,0.63 -5.01,-1.15 -0.83,-1.67 1.46,-3.02 3.13,-3.75 1.5,0.32 2.4,1.11 3.66,1.47 -0.06,1.47 -0.64,2.5 -1.78,3.43 z m -10.01,10.8 c -0.43,1.06 0.51,2.13 -0.31,2.92 -0.72,0.68 -1.54,0.61 -2.51,0.41 -1.58,-0.31 -1.22,-2.8 -2.81,-3.01 -1.32,-0.19 -1.86,1.73 -3.13,1.35 -1.23,-0.37 -1.36,-1.53 -1.88,-2.71 -1.08,-2.46 -1.58,-4.71 0,-6.88 2.17,-3 8.33,-3.52 9.49,0 0.38,1.15 -0.59,2.06 0,3.13 4.41,3.17 14.89,-4.48 13.77,-0.04 -0.43,1.69 -1.15,2.59 -2.48,3.71 -1.55,-0.63 -2.12,-1.74 -3.47,-2.01 -2.82,-0.54 -5.6,0.46 -6.67,3.13 z m 16.24,15.61 c 1.15,-0.97 2.4,-1.67 3.92,-1.27 z m 27.43,28.42 c 1.34,0.31 2.39,0.89 2.65,2.13 0.2,0.93 -0.27,1.87 -1.02,2.78 -0.84,-0.92 -1.54,-1.94 -1.65,-3.41 z m 15.16,16.02 c 2.16,-2.13 4.2,-5.5 5.31,-6.45 0.91,3.13 -1.5,4.06 -2.21,5.98 -1.02,0.04 -2.1,0.06 -3.1,0.47 z m 104.21,27.15 -2.24,0.72 c 1.41,-1.52 1.88,-1.87 2.38,-2.09 z m 18.2,9.3 c 0.66,-2.49 1.18,-2.94 1.81,-3.62 0.88,0.22 1.99,0.27 2.34,1.15 0.71,1.79 -2.26,1.66 -4.15,2.47 z m 759.71,30.77 c -1.93,-0.82 -4.97,-0.7 -4.24,-2.53 0.36,-0.9 1.5,-0.94 2.39,-1.16 1.84,2.46 1.81,3.09 1.85,3.69 z m -1.85,-6.74 c -2.7,-2.26 -4.8,-3.95 -7,-5.86 1.93,-0.13 4.37,0.43 6.36,0.85 z m 20.44,-2.75 c 1.84,-0.12 2.13,0.28 2.28,0.73 z m 106.42,-27.73 c -1.03,-0.41 -2.13,-0.45 -3.18,-0.49 -0.73,-1.95 -3.18,-2.89 -3.16,-5.31 2.05,0.18 4.13,3.62 6.34,5.8 z m 15.46,-16.35 c -0.09,3.03 -0.8,4.06 -1.66,5 -0.76,-0.92 -1.24,-1.88 -1.04,-2.85 0.27,-1.25 1.35,-1.84 2.7,-2.15 z m 28.02,-29.03 -4.01,-1.3 c 1.56,-0.41 2.83,0.31 4.01,1.3 z m 16.58,-15.94 c -1.09,-2.72 -3.93,-3.75 -6.81,-3.19 -1.38,0.26 -1.96,1.4 -2.51,2.57 -2.39,-1.67 -3.12,-2.59 -3.56,-4.3 -1.15,-4.55 9.54,3.27 12.57,1.01 2.09,-2.08 1.09,-3 1.48,-4.18 1.19,-3.59 7.48,-3.06 9.69,0 1.61,2.22 1.1,4.52 0,7.03 -0.53,1.2 -0.65,2.39 -1.91,2.77 -1.3,0.39 -1.85,-1.58 -3.19,-1.39 -1.64,0.23 -1.27,2.76 -2.88,3.09 -0.99,0.2 -1.82,0.27 -2.55,-0.43 -0.86,-0.8 0.11,-1.89 -0.33,-2.98 z m -10.22,-11.03 c -1.17,-0.94 -1.75,-2 -1.82,-3.49 1.28,-0.38 2.21,-1.19 3.74,-1.51 1.7,0.74 4.04,2.13 3.2,3.83 -0.86,1.81 -3.1,1.17 -5.12,1.17 z m -802.07,30.59 c -2.43,-1.45 -5.41,-0.22 -7.03,-1.7 2.12,-1.07 2.99,-2.47 3.61,-4.62 1.42,-2.54 2.87,-2.87 4.15,-2.99 1.98,-0.2 3.05,0.76 5.03,0.84 -2.19,0.62 -4.93,0.6 -4.77,3.02 0.09,1.41 0.73,2.46 1.69,3.24 -1.04,0.72 -2.09,1.31 -2.68,2.21 z m 390.12,-383.95 c 1.59,0.61 1.84,2.31 3.44,2.92 1.78,0.68 3.03,-1.35 4.81,-0.66 1.89,0.72 1.95,3.25 1.22,5.14 -0.69,1.79 -3.07,0.87 -4.86,0.18 -1.59,-0.6 -1.23,-2.75 -2.82,-3.35 -1.99,-0.77 -3.34,0.09 -5.38,-0.25 -1.32,-1.3 -3.01,-3.43 -1.61,-4.72 1.45,-1.38 3.31,0.02 5.2,0.74 z m 138.2,-86.51 c 2.41,0.43 4.86,0.48 3.7,2.64 -0.61,1.13 -1.49,1.56 -2.74,1.85 -1.61,0.35 -2.8,-0.07 -4.08,-1.11 -0.94,-0.75 -1.58,-1.36 -1.72,-2.55 -0.29,-2.36 2.5,-1.24 4.84,-0.83 z m 32.02,-1.75 c -1.64,2.43 -0.91,5.36 1.17,7.43 2.03,2.04 5.22,-0.75 7.27,1.27 1.41,3.41 -0.41,3.2 -1.07,4.31 -1.19,2 1.34,3.89 0.3,5.96 -2.03,4.02 -6.64,-3.85 -8.26,-8.04 -0.63,-1.63 -0.27,-2.77 -0.9,-4.4 -0.83,-2.08 -0.99,-4.95 -3.22,-4.76 -1.24,0.11 -1.45,1.45 -2.65,1.79 -3.64,1.02 -6.71,-4.49 -5.41,-8.04 0.93,-2.57 3.12,-3.43 5.82,-3.93 1.29,-0.23 2.35,-0.79 3.37,0.05 1.04,0.86 -0.27,2.4 0.64,3.42 1.1,1.22 2.99,-0.5 4.16,0.65 0.72,0.71 1.24,1.36 1.08,2.36 -0.2,1.15 -1.64,0.96 -2.3,1.93 z m -2.82,17.28 c -1.28,-1.47 -2.85,-2.76 -4.6,-3.79 -1.14,-1.69 -0.7,-2.32 0.17,-2.43 1.98,-0.31 2.69,1.91 3.83,3.58 0.57,0.85 0.52,1.75 0.6,2.64 z m 3.63,8.3 c -0.12,-1.97 -0.73,-3.88 -1.74,-5.65 1.05,0.31 2.26,0.23 2.98,1.29 0.96,1.44 0.08,3.18 -1.24,4.36 z m 123.25,7.1 c -0.67,2.21 -0.85,2.25 -1.08,2.24 -1.44,-0.09 -2.13,-1.01 -3.02,-2.15 0.86,-1.18 2.05,-1.32 2.96,-0.8 z m -759.97,297.15 c -0.39,1.6 -0.56,4.08 -1.83,4.21 1.22,1.1 2.52,2.45 3.02,3.49 1.15,2.43 1.01,4.19 0.73,6.86 -0.96,9.08 -21.78,-12.3 -14.78,-18.15 1.57,-1.3 3.42,-0.74 4.65,-2.36 2.65,-3.47 -9.93,-8.29 -5.76,-9.59 1.26,-0.39 4,1.18 3.39,-0.01 -4.78,-3.87 -3.43,-8.2 -1.54,-12.06 4.22,-8.66 23.85,6.35 23.85,6.35 -2.11,8.01 0.82,27.54 -7.39,22.96 -3.88,-2.15 -4.64,-13.62 -6.25,-9.49 -1.15,2.91 2.66,4.75 1.91,7.79 z m 318.93,-234.92 c -1.36,0.49 -2.21,1.61 -2.76,3.09 -2.19,0.71 -1.93,2.04 -2.94,2.77 -3.07,2.2 -7.84,-1.92 -7.84,-5.69 0,-2.75 1.77,-4.31 4.13,-5.7 1.14,-0.66 1.94,-1.54 3.18,-1.11 1.28,0.45 0.57,2.36 1.77,3 1.45,0.78 2.64,-1.49 4.14,-0.8 2.03,2.96 0.65,3.36 0.32,4.44 z m 13.03,7.09 c -0.95,-0.5 -1.77,-1.19 -2.52,-1.95 1.3,0.56 2.13,0.71 2.46,1.65 z m -41.15,-26.3 c -3.97,-1.65 -5.92,-2.77 -9.43,-2.61 -4.44,0.2 -6.38,6.77 -10.34,4.77 -2.48,-1.27 -1.22,-5.41 -3.95,-5.95 -2.64,-0.5 -3.33,2.49 -5.29,4.24 -1.73,-0.22 -3.33,-0.65 -4.51,-2.3 -2.12,-2.97 1.87,-8.12 -1.6,-9.21 -2.73,-0.85 -4.91,0.95 -6.55,3.29 -0.77,1.1 -1.24,1.86 -1.29,3.21 -0.11,2.7 6.06,3.14 4.44,5.31 -0.97,1.31 -3.48,-0.32 -4.01,1.23 -16.75,-2.33 -30.22,-32.31 -29.78,-52.83 31.41,1.46 59.84,39.03 91.92,21.05 3.58,-2 4.72,-5.11 8.76,-5.81 1.69,-0.28 2.72,-0.3 4.4,0 9.59,1.72 -9.39,17.09 -3.36,24.73 1.35,1.71 2.31,2.56 4.12,3.77 11.04,7.34 -5.93,-30.96 7.13,-33.23 11.94,-2.08 18.21,11.4 20.5,23.35 -1.24,-0.57 -2.25,-0.61 -2.75,0.73 -0.9,2.39 2.04,3.83 1.61,6.36 -0.23,1.33 -0.59,2.06 -1.3,3.2 -2.72,1.08 -2.77,1.23 -2.45,1.37 -5.38,-0.06 -15.12,-11.99 -16.13,-5.78 -0.91,5.64 14.33,7.93 9.57,11.1 -1.36,0.9 -2.62,0.37 -4.01,1.24 -2.9,1.82 1.3,2.57 5.56,4.02 0.58,4.39 3.28,9.27 6.74,8.76 -1.6,3.24 -4.5,-3.86 -7.78,-3.28 -5.07,0.9 6.43,10.58 5.29,13.57 -3.71,1.06 -4.97,0.57 -6.65,-0.28 -4.27,-2.18 -1.17,-8.92 -5.49,-11 -1.99,-0.95 -3.55,-0.04 -5.56,-0.92 -5.81,-2.58 0.55,-13.22 -5.44,-15.37 -1.38,-0.5 -2.34,-0.08 -3.71,-0.62 -3.96,-1.55 -1.47,-9.97 -5.67,-9.31 -2.05,0.32 -2.96,1.53 -4.33,3.09 -2.25,2.56 0.4,7.36 -2.89,8.27 -2.51,0.69 -3.57,-3.07 -6.13,-2.64 -1.44,0.25 -2.52,0.51 -3.33,1.73 -1.64,2.45 4.25,2.82 4.95,5.68 0.42,1.71 0.48,2.89 -0.18,4.53 -1.91,4.79 -6.63,-10.95 -10.7,-7.77 z m 166.07,-4.8 3.28,2.91 c -0.02,3.42 2.26,5.4 5.16,5.91 3.84,2.64 6.23,5.16 8.26,7.51 -2.53,-0.65 -5.74,-2.32 -7.7,-3.64 -1.45,-0.98 -1.81,-2.11 -3.27,-3.08 -1.87,-1.24 -3.64,-3.5 -5.36,-2.06 -0.96,0.8 -0.36,2.02 -1.15,2.98 -2.39,2.93 -8.07,0.18 -9.04,-3.47 -0.71,-2.65 0.59,-4.61 2.52,-6.56 0.92,-0.93 1.47,-2 2.77,-1.9 1.36,0.1 1.17,2.13 2.49,2.44 z m -58.67,11.82 c -2.29,-0.86 -4.54,-1.93 -6.74,-3.19 2.72,-1.63 4.71,-3.98 6.23,-2.33 1.11,1.21 1.38,2.42 1.15,4.04 z m 33.4,-4.74 c -1.88,-1.55 -5.15,2.26 -8.59,4.5 -2.74,-1.5 -3.74,-5.57 -6.16,-4.22 -1.12,0.62 -1.47,1.48 -1.92,2.63 l -3.91,-2.01 c -0.32,-3.25 -1.04,-6.28 -4.02,-7.77 -4.17,-2.09 -8.3,1.77 -11.91,-1.2 -0.73,-1.83 -1.09,-3.07 -1.59,-4.28 -0.19,-2.13 -0.27,-4.11 -2.34,-4.2 -2.6,-3.04 -3.96,-6.04 -6.69,-5.17 -1.29,0.41 -1.84,1.15 -2.65,2.22 -1.73,2.28 0.59,4.95 -1.11,7.24 -3.02,4.07 0.7,-11.79 -4.35,-12.23 -3.13,-0.28 -3.88,3.92 -7.03,3.97 -16.59,-20.4 -26.13,-46.37 -26.49,-57.67 l 4.95,-4.63 c 36.71,22.09 68.61,43.6 92.04,61.8 -1.2,-0.58 -2.4,-1.37 -3.72,-0.76 -1.34,0.61 -2.3,1.15 -2.78,2.54 -0.95,2.78 4.85,1.62 6.26,4.19 0.85,1.56 1.2,2.68 1,4.43 -0.61,5.13 -9.25,-8.86 -12.35,-4.73 -0.88,1.18 -1.37,2.05 -1.35,3.52 0.04,3.54 6.21,1.05 8.12,4.02 1.28,1.99 2.1,3.68 1.33,5.91 -0.56,1.62 -2.94,1.64 -4.74,1.9 z m -3.37,8.1 c 0.6,-1.57 2.52,-2.8 3.59,-4.19 0.41,1.86 -0.08,2.65 -0.88,3.58 -0.81,0.95 -1.73,1 -2.71,0.61 z m -43.07,6.89 c -1.74,-1.48 -3.5,-2.85 -5.28,-4.06 2.8,-0.45 4.73,1.67 5.28,4.06 z m -226.71,-36.72 c 1.38,-2.83 3.39,-3.52 5.82,-3.34 -1.61,2.25 -2.31,2.68 -3.54,3.25 -0.83,0.39 -1.59,0.39 -2.28,0.09 z m 31.62,33.91 c -1.19,-0.82 -2.15,-1.57 -2.78,-2.41 0.83,0.24 1.71,0.33 2.7,0.12 2.51,-0.54 4.56,-1.8 6.11,-3.51 l 0.81,2.16 c -1.72,1.09 -2.62,1.98 -3.22,3 -1.2,-0.06 -2.42,0.14 -3.62,0.64 z m -17.26,7.59 c -1.34,-0.33 -1.03,-2.61 0.01,-4.76 0.32,1.5 0.19,2.91 -0.01,4.76 z m 283.27,-45.98 c -1.56,-4.95 -2.55,-9.89 -2.94,-13.95 7.5,-0.07 19.59,-0.96 30.22,0.11 0.13,1.34 -0.03,2.14 -0.42,3.43 -2.16,7.13 -19.84,-6.87 -19.09,0.54 0.58,5.69 15.9,3.95 12.12,8.25 -1.08,1.23 -2.44,1.03 -3.56,2.23 -4.01,4.32 11.47,0.15 14.11,5.42 0.73,1.46 1.53,2.44 1.15,4.04 -0.77,3.24 -5.42,-2.86 -8.44,-1.44 -5.28,2.46 12.93,10.34 7.67,12.83 -1.96,0.92 -3.42,0.79 -5.54,0.35 -4.69,-0.99 -3.44,-8.31 -8.16,-9.2 -2.16,-0.41 -3.43,0.88 -5.6,0.54 -6.28,-0.99 -2.89,-12.91 -9.23,-13.43 -0.91,-0.08 -1.57,0.15 -2.29,0.28 z m -335.17,4.76 c -1.18,1.92 -2.03,4.99 -3.09,8.09 -0.14,-1.38 -0.48,-2.54 -1.85,-2.74 -1.23,-0.18 -1.74,1.09 -2.98,1.14 -3.77,0.18 -5.53,-5.88 -3.47,-9.04 1.49,-2.3 3.82,-2.65 6.56,-2.52 1.32,0.06 2.46,-0.24 3.27,0.79 0.83,1.08 -0.81,2.3 -0.15,3.49 z m 16.31,-7.74 c -0.13,5.53 -0.14,11.39 -1.59,14 -0.92,-0.65 -1.92,-1.11 -2.67,-2.26 -2.54,-3.91 2.78,-7.9 4.26,-11.74 z m -178.37,-62.02 c 1.56,0 2.54,1.33 3.28,3.11 -2.35,2.23 -2.82,2.3 -3.28,2.27 z m 55.29,26.91 -0.53,-2.45 c -0.14,-1.02 -0.02,-1.62 -0.12,-2.64 1.19,0.85 2.98,1.34 2.68,3.02 z m 13.03,7.87 c -0.78,-1.26 -1.51,-2.49 -2.76,-1.85 -1.02,0.53 -0.81,1.65 -1.63,2.46 -3.07,3 -6.39,-1.86 -8.11,-6.77 2.32,-0.66 7.25,-3.4 9.5,-1.68 2.6,1.99 5.81,6.16 3,7.84 z m 54.95,21.94 c -1.08,-2.17 -2.19,-4.29 -3.32,-6.28 -0.61,-6.37 11.03,-10.29 9.01,-17.58 -1.24,-4.5 -6.86,-4.99 -7.07,-9.64 -0.17,-3.65 5.99,-5.8 3.67,-8.61 -1.83,-2.2 -4.64,-1.87 -7.28,-0.8 -1.25,0.5 -2.06,0.89 -2.84,1.98 -1.56,2.21 3.37,5.94 0.84,6.88 -1.54,0.56 -2.75,-2.16 -4.04,-1.15 -1.15,0.91 -0.67,2.3 -0.36,3.73 0.66,3.02 6.61,1.7 6.33,4.77 -0.15,1.63 -0.88,2.64 -2.24,3.55 -3.17,2.13 -5.79,-2.72 -7.71,-6.03 -2.03,-3.5 1.46,-7.31 -1.26,-10.31 -1.4,-1.54 -5.22,-0.69 -4.64,-2.71 0.38,-1.29 2.49,-0.68 2.84,-1.99 0.31,-1.19 -0.39,-1.96 -1.13,-2.94 -2.57,-3.39 -9.22,-0.23 -10.19,3.91 -0.51,2.18 0,3.74 1.25,5.59 0.81,1.23 1.94,1.33 2.77,2.54 2.65,3.85 1.9,10.06 -2.47,11.74 -1.26,0.48 -2.1,0.63 -3.43,0.42 -4.12,-0.68 -2.85,-5.94 -3.84,-10 -0.71,-2.93 1.25,-5.8 -1.13,-7.65 -1.3,-1.01 -2.41,-1.23 -4.04,-1.15 -4.35,0.23 -1.1,8.44 -5.21,9.87 -1.28,0.44 -2.2,0.96 -3.43,0.42 -1.24,-0.55 -1.45,-1.6 -1.99,-2.83 -1.08,-2.5 2.73,-6.75 0.02,-6.98 -2.35,-0.22 -1.32,4.02 -3.5,4.93 -1.17,0.49 -2.07,0.86 -3.24,0.35 -1.24,-0.54 -1.68,-1.52 -1.99,-2.84 -0.35,-1.55 0.82,-2.37 0.95,-3.96 0.53,-6.32 -2.34,-13.11 -8.66,-13.76 -4.09,-0.42 -5.59,3.15 -5.54,7.67 -0.8,-0.54 -1.77,-0.86 -2.94,-0.91 -4.66,-0.23 -11.73,2.97 -9.6,7.11 1.7,3.3 6.33,-0.36 9.33,1.81 4.57,3.29 7.93,10.31 3.65,13.95 -1.4,1.2 -2.61,1.76 -4.28,1.9 -0.32,-1.63 -0.37,-3.42 -0.34,-5.32 0.07,-3.27 3.63,-5.08 2.31,-8.07 -1.85,-4.16 -3.19,11.03 -7.31,9.1 -2.1,-3.54 2.82,-9.15 -0.48,-10.62 -1.33,-0.59 -2.3,-0.64 -3.73,-0.36 -3.48,0.68 -1.77,8.09 -5.25,7.41 -2.65,-0.51 -3.43,-3.02 -3.97,-5.67 -1.01,-4.94 7.81,-5.33 7.71,-10.37 -0.07,-2.79 0.04,-5.68 -2.56,-6.66 -1.87,-0.71 -3.25,0.08 -5.01,1.02 -4.75,2.52 1.97,11.21 -2.91,13.48 -5.3,2.46 -9.73,-3.3 -12.28,-8.55 2.34,-8.23 -7.34,-21.04 1.42,-23.86 63.74,-20.53 106.06,-29.54 106.06,-29.54 0,0 65.56,55.74 58.65,100.64 -0.2,1.33 -0.32,2.87 -0.4,4.51 -1.44,-2.12 -2.47,-2.29 -3.32,-3.49 -2.48,-3.46 4.19,-9.17 0.31,-10.9 -1.89,-0.85 -3.31,-0.33 -5.31,0.23 -3.29,0.93 -3.67,6.4 -6.93,5.36 -2.48,-0.79 -1.32,-4.52 -3.71,-5.54 -1.34,-0.59 -2.39,-0.95 -3.73,-0.37 -2.7,1.16 2.03,4.69 1.07,7.46 -0.59,1.68 -1.19,2.68 -2.63,3.71 -4.21,2.97 0.4,-12.8 -4.74,-12.35 -1.47,0.13 -2.45,0.35 -3.53,1.35 -2.59,2.41 3.38,5.32 2.45,8.73 -0.62,2.28 -1.32,4.02 -3.5,4.94 -2.78,1.17 -5.61,-5.11 -7.29,-2.6 -0.81,1.22 0.59,2.63 -0.36,3.74 -0.79,0.94 -1.71,1.1 -2.94,1.13 -3.44,0.08 -2.36,-4.89 -3.16,-8.23 -0.65,-2.7 1.72,-6.17 -0.92,-7.07 -1.27,-0.44 -2.17,-0.05 -3.43,0.42 -4.42,1.68 1.67,13.68 -2.66,11.82 z m 8.13,16.76 -2.65,-5.35 c 4.01,1.78 6.4,2.38 4.78,4.22 z m 22.05,13.75 c -0.92,0.67 -1.8,1.18 -2.67,1.56 -0.57,-2.7 -0.12,-5.38 1.77,-5.2 1.33,0.1 1.86,1.15 2.28,2.4 z m 326.79,-28.2 c -3.81,-5.33 -7.46,-10.32 -8.43,-16.07 2.13,-0.46 3.65,-1.6 3.65,-1.6 4.39,6.91 4.52,11.27 4.78,17.67 z m 43.91,-9.05 c -27.07,-0.49 -50.18,-11.58 -55.64,-47.55 16.5,8.5 33.93,15.07 51.18,21.98 l 13.08,19.39 c -2.64,4.22 -11.03,-2.74 -11.46,1.63 -0.21,2.1 1.95,2.9 2.84,4.55 z m -295.76,-5.36 c -5.96,-0.97 -11.25,-3.65 -13.95,-7.05 3,-2.05 4.72,-3.36 7.68,-3.36 2.97,0 5.21,1.84 6.27,4.39 z m 125.26,-4.49 c -23.75,13.57 -72.62,-10.73 -98.51,-14.79 -4.49,-11.81 -13.59,-23.96 -13.26,-37.07 20.92,3.05 163.75,1.34 122.58,53.98 z m 111.47,-12.06 c -22.65,-8.25 -45.3,-16.63 -67.02,-27.14 15.91,-5.19 33.58,-9.46 50.4,-9.29 5.07,10.28 17.03,24.74 16.62,36.43 z m -257.53,-3.76 c 0.92,-8.07 2.17,-15.43 5.65,-22.1 3.47,6.67 5.84,13.78 8.27,20.38 -1.51,1.79 -7.09,2.13 -13.92,1.72 z m -23.79,-10.27 c -5.72,-6.13 -10.74,-13.03 -15.41,-19.97 v -7.53 l 20.99,0.06 c 1.75,8.59 -2.58,19.68 -5.58,27.44 z m 245.09,-31.8 c -29.93,7.67 -69.74,14.06 -69.74,-29.43 23.86,-1.13 49.98,17.78 69.74,29.43 z m -86.7,0.76 c -27.19,5.73 -69.95,-13.26 -99.18,-9.23 -15.61,-20.44 -32.1,-40.61 -46.27,-62.08 19.43,-10.05 139.29,36.37 145.45,71.31 z m -171.46,-15.35 c -5.04,0.19 -19.11,-5.88 -18.88,-11.51 v -9.37 c 12.64,2.59 22.35,7.8 30.34,13.34 v 7.54 z m 118.15,-52.49 c -38.39,-8.16 -68.93,-29.08 -109.86,-29.08 -25.6,0 -82.14,-129.21 -52.88,-181.3 43.5,4.98 87.12,113.97 103.87,147.61 13.25,26.64 41.37,39.8 58.87,62.77 z m 298.24,678.46 2.88,1.94 c -1.19,-0.51 -2.33,-0.96 -2.88,-1.94 z m -8.45,-6.07 2.98,2.17 c -2.79,0.71 -2.61,-0.94 -2.98,-2.17 z m -6.88,-5.9 c 1.01,1.28 2.15,2.46 3.51,3.44 -1.16,1.36 0.18,4.43 -1.45,4.93 -2.19,0.67 -2.82,-2.7 -3.11,-4.96 -0.14,-1.06 0.29,-2.25 1.05,-3.41 z m -39.49,-4.07 0.53,-4.19 c 2.36,2.84 2.02,3.82 1.11,4.39 z m -47.23,-1.35 c 1.14,1.15 1.1,3.7 0.84,6.55 -0.88,-2.34 -1.34,-4.63 -0.84,-6.55 z m -230.65,-91.94 c 2.66,-1.64 2.8,-0.99 2.16,-0.41 -0.66,0.61 -1.37,0.55 -2.16,0.41 z m -62.84,47.5 c 2.69,0.44 3.91,2.33 4.35,4.84 -2.2,0.31 -5,-0.39 -7.15,0.24 z M 9056,5239.14 c 3.8,-2.46 6.09,-2.72 8.1,-1.6 1.19,0.65 1.84,1.2 2.54,2.36 0.05,1.04 -0.15,2.06 -0.84,3.11 -2.55,0.78 -6.67,-0.62 -11.07,-2.38 z m -11.4,-3.81 c 1.32,-1.16 2.78,-1.64 4.4,-1.06 -1.05,0.71 -2.21,1.27 -3.12,2.04 z m -6.91,12.93 1.72,-4.3 c 1.18,1.08 1.07,1.64 0.93,2.24 -0.44,1.92 0.75,3.6 2.53,4.67 -2.39,0.93 -2.49,-2.57 -4.35,-2.63 z m -51.16,5.69 c 0.6,-0.89 1.23,-1.68 1.89,-2.32 -0.09,1.06 -0.3,2.14 0.68,2.37 1.35,0.31 1.69,-1.84 3.08,-1.82 0.99,0.02 1.77,0.16 2.35,0.96 0.63,0.88 0.65,1.91 0,2.77 -0.92,1.19 -2.35,-0.1 -3.84,-0.32 -1.67,-0.25 -2.84,-1.27 -4.16,-1.64 z m 530.46,-493.59 -9.72,-2.66 c 1.71,-1.02 3.51,-1.78 4.86,-1.16 1.76,0.8 3.89,2.28 4.86,3.82 z m 205.35,50.83 c 2.06,-0.92 4.23,-1.54 6.64,-1.85 1.32,0.8 2.91,1.11 2.86,2.71 -1.88,1.82 -2.35,1.94 -2.85,2.52 -1.06,1.24 -0.01,3.07 -1.38,3.97 -1.41,0.91 -2.1,-0.64 -2.88,-2.38 -0.07,-2.71 -1.16,-3.43 -2.58,-3.85 z m 14.14,5.96 -3.32,0.72 -1.34,-2.34 3.08,-1.68 c 0.6,1.1 1.15,2.21 1.58,3.3 z m 77.11,31.77 c -0.77,-1.37 -1.93,-2.53 -3.39,-3.46 2.62,0.71 5.07,0.98 3.72,3.02 z m 24.63,15.05 c -1.93,-1.38 -3.28,-3.88 -5.68,-4.77 0.16,-1.18 0.64,-2.18 1.79,-2.23 1.99,-0.13 2.52,2.13 3.5,3.9 0.57,1.04 0.31,2.07 0.39,3.1 z m 92.31,30.69 c -1.51,-0.31 -2.74,-0.4 -4.34,0.23 -3.38,-0.18 -5.88,-1.39 -4.18,-3.11 1,-1.01 2.22,-0.81 3.07,-1.94 1.15,-1.54 -0.36,-3.28 0.69,-4.89 1.16,-1.77 3.21,-4.08 4.75,-2.64 1.37,1.28 -1.65,3.05 -0.8,4.71 2.82,2.27 3.75,-0.94 5.33,-0.28 2.1,0.89 0.43,3.88 -0.8,5.8 -0.68,1.07 -2.08,1.75 -3.72,2.12 z m 33.47,37.24 c -0.39,1.4 0.16,3.31 0.62,5.25 -0.62,2.52 0.71,5.51 -1.74,6.38 -2.18,0.77 -5.67,-0.05 -5.44,-2.34 0.19,-1.99 4.33,-0.49 4.47,-2.48 0.08,-1.28 -0.77,-1.9 -1.6,-2.89 -1.01,-1.19 -2.24,-1.14 -3.25,-2.34 -0.8,-0.94 -1.55,-1.54 -1.55,-2.79 0.02,-1.77 3.69,-1.53 3.2,-3.23 -0.39,-1.34 -2.42,-0.6 -3.08,-1.82 -0.46,-0.87 -0.72,-1.62 -0.3,-2.52 0.47,-0.97 1.36,-1.5 2.42,-1.34 1.49,0.22 1.06,2.1 1.59,3.51 0.87,2.33 -0.24,4.49 1.59,6.17 0.8,0.74 2,0.56 3.07,0.44 z m -13.1,160.68 c 2.48,-0.98 3.66,-0.57 4.77,0 z m -6.89,69.47 c 2.2,-2.83 4.19,-5.75 5.91,-8.77 0.02,2.63 -0.01,5.98 -1.8,7.08 -1.15,0.7 -2.67,1.37 -4.11,1.69 z M 8931.03,5289.2 c -1.33,2.73 -2.65,3.87 -3.58,4.9 l -1.34,-3.96 c 1.76,-0.4 3.43,-0.78 4.92,-0.94 z m 658.22,79.28 c 0.77,-0.25 1.5,-0.69 2.19,-1.41 1.63,-1.68 1.25,-4.4 0.68,-7.01 5.88,0.79 15.29,6.91 14.74,1.46 -0.58,-5.68 -15.9,-3.95 -12.13,-8.24 1.6,0.35 2.59,1.55 4.38,2.11 7.43,2.32 13.84,1.35 19.88,-1.52 1.58,2.63 2.3,6.42 4.99,5.23 1.89,-0.83 2.45,-2.24 3.37,-4.1 0.94,-1.9 -0.17,-4.15 -0.44,-5.99 l 3.53,-2.74 c 1.34,0.56 2.68,1.64 4.17,0.95 1.33,-0.61 2.3,-1.15 2.77,-2.53 0.5,-1.47 -0.88,-1.84 -2.5,-2.24 0.94,-0.9 1.76,-1.79 2.5,-2.68 2,1.58 3.93,2.57 5.08,1.03 0.9,-1.18 1.38,-2.05 1.36,-3.53 -0.02,-1.67 -1.42,-2 -3.09,-2.19 1.43,-2.2 2.86,-4.51 4.94,-7.08 l 2.92,-3.86 c 2.12,3.01 1.49,4.13 2.35,5.17 0.91,1.1 1.93,1.35 3.36,1.47 4.36,0.38 -0.11,-8.03 3.36,-10.71 2.27,3.72 1.34,9.89 6.05,12.24 4.17,2.09 8.3,-1.76 11.91,1.2 2.81,2.32 0.29,8.33 3.93,8.48 2.85,0.12 4.49,-2.18 5.47,-4.86 0.34,-0.95 0.57,-1.67 0.54,-2.52 0.66,0.37 1.4,0.5 2.31,0.58 3.49,0.3 1.33,-5.01 2.09,-8.52 0.85,1.86 2.65,1.78 4.6,1.18 0.83,1.44 1.87,1.43 3.1,1.54 1.86,0.16 3.31,-1.11 4.14,-2.89 0.26,3.52 -5.78,4.36 -4.05,6.59 1.21,1.57 3.09,1.3 5.04,0.84 1.44,-0.35 2.61,-1.14 3.45,-2.21 2,1.21 4.09,0.83 6.61,0.32 6.69,-1.37 -4.84,-7.06 -9.65,-13.61 1.84,-0.13 3.92,0.02 4.41,-1.71 0.55,-1.99 -2.32,-3.09 -3.98,-4.33 1.41,-0.2 2.07,-0.46 2.65,-0.85 1,1.1 2.12,2.11 3.42,2.03 2.43,0.16 3.03,0.67 3.78,-0.21 0.88,-1.02 0.95,-2.01 0.84,-3.36 4.83,0.84 -0.39,4.8 1.04,7.77 2.19,4.5 12.76,-2.49 12.6,2.52 -0.09,2.81 -3.46,3.16 -4.2,5.87 -0.56,2.06 -0.9,3.53 0,5.46 1.93,4.16 11.56,-4.58 11.75,0 0.12,2.81 -5.92,3.65 -4.2,5.88 1.23,1.57 3.1,1.3 5.05,0.84 3.53,-0.85 5.44,-4.4 4.82,-7.98 -0.63,-3.62 -8.24,-2.32 -7.35,-5.88 0.77,-3.05 6.5,-0.32 7.35,-3.35 0.65,-2.31 -3.33,-3.43 -4.68,-4.94 0.69,-0.78 0.92,-1.66 1.12,-2.83 1.01,-0.67 2.22,-0.72 3.56,-0.63 3.01,0.21 3.91,7.33 5.88,5.04 0.88,-1.03 0.94,-2.01 0.84,-3.36 -0.23,-3.01 -6.57,-2.1 -5.88,-5.04 0.48,-2.03 2.24,-2.59 4.19,-3.35 4.65,-1.83 7.76,8.01 11.76,5.03 1.31,-0.98 2.52,-1.72 2.52,-3.35 0,-1.65 -3.28,-1.92 -2.52,-3.36 0.63,-1.2 2.03,-1.09 3.36,-0.84 2.75,0.5 2.37,3.92 2.52,6.71 0.13,2.7 -1.91,4.03 -1.68,6.72 0.11,1.34 0.04,2.27 0.84,3.36 1.52,2.05 4.51,2.44 6.5,0.84 1.14,-0.92 1.44,-1.92 1.68,-3.36 0.49,-2.89 -3.83,-3.83 -3.36,-6.72 0.73,-4.39 12.09,0.94 10.92,-3.35 -0.43,-1.59 -2.55,-1.73 -2.52,-3.36 0.04,-2.64 4.11,-0.43 6.72,-0.84 9.8,-1.57 31.68,-2.48 28.34,-6.84 4.8,-1.71 2.94,-5.55 5.45,-7.44 1.03,-0.76 1.91,-1.22 2.92,-1.46 -1.33,8.2 4.53,13.98 11.77,15.74 2.78,0.67 5.64,2.3 7.34,0 0.8,-1.09 0.82,-2.02 0.84,-3.36 0.05,-2.86 -3.39,-3.66 -3.36,-6.51 0.06,-5.06 6.37,9.96 10.71,7.35 2.7,-1.62 0.83,-5.46 3.36,-7.35 1.65,-1.24 2.96,-1.68 5.03,-1.68 2.07,0 3.02,2.13 5.04,1.68 3.73,-0.83 -5.82,-4.65 -5.04,-8.4 0.91,-4.29 11.24,-0.8 10.08,-5.03 -0.68,-2.47 -3.91,-1.91 -5.04,-4.2 -0.6,-1.21 -0.74,-2.01 -0.84,-3.36 -0.53,-7.43 20.99,-0.7 17.63,-7.34 -2.57,-5.1 -16.26,2 -14.27,-3.36 0.57,-1.53 1.9,-1.84 2.52,-3.35 2.2,-5.47 -10.76,3.96 -15.11,0 -1.21,-1.11 -2.31,-1.74 -2.52,-3.36 -0.44,-3.32 6.08,0.72 8.39,-1.68 1.11,-0.27 1.82,-0.35 2.53,-1.05 1.42,-1.41 1.49,-2.88 1.67,-4.83 2.16,-0.4 2.89,-2.06 5.04,-2.53 6.22,-1.32 7.33,11.03 13.43,9.25 1.41,-0.41 1.94,-1.32 3.36,-1.68 4.12,-1.07 7.06,7.19 10.07,4.2 1.47,-1.47 1.49,-2.98 1.68,-5.04 0.32,-3.41 -4.65,-5.73 -2.52,-8.4 1.63,-2.03 4.69,0.39 6.51,-1.47 1.02,-1.05 1.73,-1.89 1.68,-3.36 -0.11,-2.94 -5.1,0.22 -7.35,-1.68 -1.35,-1.14 -2.08,-2.06 -2.52,-3.78 -1.26,-4.99 11.81,4.96 13.23,0 0.4,-1.41 0.55,-2.4 0,-3.77 -1.31,-3.28 -6.18,1.25 -9.03,-0.84 -1.9,-1.4 -3.28,-2.68 -3.35,-5.04 -0.1,-3.01 6.78,-3.41 5.03,-5.87 -0.85,-1.2 -2.66,-0.4 -3.36,-1.68 -0.59,-1.08 -0.41,-2 0,-3.15 1.07,-3 4.8,-0.83 8.06,-0.13 1.17,2.16 1.87,4.66 4.12,3.9 2.6,-1.36 3.1,-1.54 3.56,-2.09 0.86,-1.04 0.84,-2.01 0.84,-3.36 -1.14,-2.86 -1.32,-3.57 -1.88,-4.41 -1.5,-2.25 -6.74,1.02 -6.72,-1.68 0.02,-1.1 1.38,-1.54 2.12,-2.18 l 2.28,-0.13 c 8.27,-0.51 6.88,14.11 15.12,14.91 4.64,0.45 7.12,-4.63 11.54,-3.15 3.46,1.15 3.26,7.67 6.72,6.5 2.7,-0.91 3.41,-3.65 3.36,-6.5 -0.03,-1.35 -0.1,-2.24 -0.84,-3.36 -1.5,-2.25 -6.76,1.02 -6.72,-1.68 0.02,-1.64 3,-1.79 2.52,-3.36 -0.43,-1.4 -1.92,-1.46 -3.36,-1.68 -3.06,-0.46 -3.95,5.57 -6.72,4.2 -1.47,-0.72 -2.15,-1.76 -2.52,-3.36 -0.84,-3.72 4.63,-4.43 8.4,-5.04 4,-0.64 6.3,3.99 10.07,2.52 1.96,-0.76 2.53,-4.62 4.2,-3.36 1.08,0.82 -0.25,2.57 0.84,3.36 1,0.72 1.97,0.35 3.15,0 4.09,-1.18 3.52,-8.52 0,-10.91 -1.85,-1.25 -3.49,-1.34 -5.67,-0.84 -1.42,0.32 -1.93,1.34 -3.35,1.68 -4.55,1.09 -10.08,-1.83 -10.08,-6.51 0,-1.35 0.16,-2.19 0.84,-3.36 2.1,-3.6 6.56,-0.52 10.7,0 3,0.39 4.98,3.24 7.56,1.68 1.4,-0.84 2.01,-1.79 2.52,-3.35 1.34,-4.14 -7.49,-4.05 -7.35,-8.4 0.04,-1.35 -0.11,-2.4 0.84,-3.35 0.96,-0.96 2.01,-0.78 3.36,-0.84 2.72,-0.13 5.31,4.96 6.5,2.51 1.04,-2.12 -3.29,-2.68 -3.35,-5.04 -0.04,-1.26 -0.05,-2.23 0.84,-3.14 0.94,-0.97 2.02,-1.03 3.35,-0.84 1.57,0.22 1.93,1.61 3.36,2.31 5.71,2.76 13.09,2.5 15.96,-3.15 3.64,-7.18 -10.54,-10.59 -18.48,-9.24 -2.04,0.35 -3.26,2.75 -5.03,1.68 -1.19,-0.71 -0.72,-2.14 -1.52,-3.18 1.31,-2.59 2.43,-5.26 3.32,-8.02 3.75,1.52 4.16,5.49 7.43,5.33 4.06,-0.21 -6.46,-5.58 -6.39,-8.97 3.5,-3.98 7.66,5.18 10.59,2.25 1.03,-1.03 1.42,-1.92 1.68,-3.36 0.61,-3.49 -6.91,-4.55 -5.04,-7.55 1.43,-2.29 4.05,-2.13 6.71,-1.68 4.98,0.83 2.19,9.21 6.93,10.91 2.62,0.94 5.29,2.08 7.14,0 1.33,-1.48 1.08,-3.06 0.84,-5.04 -0.66,-5.33 -11.17,-2.19 -11.54,-7.55 -0.4,-5.82 6.56,-7.9 12.38,-8.4 3.32,-0.28 5.25,2.81 8.39,1.68 1.97,-0.71 3.34,-1.45 4.2,-3.36 1.7,-3.76 -6.74,-4.06 -6.71,-8.18 0.02,-3.54 4.77,-4.03 5.03,-7.56 0.11,-1.43 -0.21,-2.78 -0.83,-3.97 h -18.16 c -6.03,3.4 -10.12,2.64 -13.83,0 -0.69,-1.31 -0.78,-2.13 -1,-2.93 1.57,-1.14 2.19,-4.22 3.7,-3.08 1.07,0.83 -0.25,2.57 0.84,3.37 1,0.71 1.97,0.33 3.15,0 4.09,-1.19 3.52,-8.53 0,-10.92 -1.85,-1.25 -3.49,-1.34 -5.67,-0.84 -1.43,0.32 -1.93,1.34 -3.36,1.68 -4.54,1.09 -10.07,-1.83 -10.07,-6.5 0,-1.35 0.16,-2.2 0.84,-3.37 2.1,-3.6 6.56,-0.52 10.7,0 2.99,0.39 4.97,3.24 7.56,1.69 1.4,-0.85 2.01,-1.81 2.51,-3.36 1.35,-4.14 -7.48,-4.05 -7.34,-8.4 0.05,-1.35 -0.12,-2.4 0.84,-3.36 0.95,-0.95 2.01,-0.77 3.36,-0.84 2.71,-0.11 5.31,4.97 6.5,2.52 1.04,-2.12 -3.29,-2.67 -3.36,-5.03 -0.03,-1.27 -0.04,-2.24 0.84,-3.15 0.95,-0.97 2.03,-1.03 3.36,-0.84 1.58,0.22 1.93,1.62 3.36,2.31 5.71,2.76 13.08,2.5 15.95,-3.15 3.65,-7.18 -10.53,-10.59 -18.47,-9.24 -2.04,0.35 -3.26,2.75 -5.04,1.68 -1.25,-0.75 -0.64,-2.32 -1.68,-3.35 -2.9,-2.92 0.37,7.92 -3.14,10.07 -2.79,1.71 -7.83,3.23 -8.4,0 -0.23,-1.33 0.88,-2.01 0.84,-3.36 -0.04,-1.77 -1.39,-2.46 -1.68,-4.2 -0.68,-4.2 0.76,-7.57 4.2,-10.07 3.9,-2.84 7.91,-1.82 12.38,0 3.03,1.23 3.45,5.2 6.72,5.04 4.17,-0.21 -7.01,-5.86 -6.37,-9.23 1.22,0.01 2.42,-0.24 3.62,-0.72 2.38,1.6 4.95,5.23 6.95,3.23 1.03,-1.03 1.42,-1.92 1.68,-3.36 0.28,-1.61 -1.18,-2.71 -2.64,-3.71 1.84,-1.55 3.67,-3.34 5.51,-5.11 3.33,1.9 1.42,8.95 5.73,10.5 2.62,0.94 5.31,2.08 7.11,0 1.4,-1.49 1.1,-3.06 0.9,-5.04 -0.7,-5.34 -11.21,-2.19 -11.57,-7.55 l 2.18,-1.95 c 2.38,-2.05 4.56,-3.97 6.49,-5.91 1.2,-0.26 2.5,-0.43 3.7,-0.54 3.3,-0.28 5.3,2.81 8.4,1.68 2,-0.71 3.3,-1.44 4.2,-3.35 1.7,-3.77 -6.7,-4.06 -6.7,-8.19 0,-3.54 4.8,-4.02 5,-7.56 0.1,-1.43 -0.2,-2.78 -0.8,-3.97 h -3.9 c 0.2,-6.68 -1.2,-13.82 -4,-19.72 l 8.9,-4.96 c 1.3,-3.13 2.6,-3.12 3.1,-4.38 0.5,-1.33 0.2,-2.34 -0.4,-3.64 -1.7,-4 -6.9,3.98 -11,2.25 -1.3,-0.59 -2.2,-0.93 -3,-2.13 -1.8,-2.47 4.2,-6.18 1.5,-7.58 -2.3,-1.21 -4.1,5.18 -5.9,3.26 -0.95,-1.06 -0.8,-2.21 -0.6,-3.64 0.3,-3.5 6.4,-2.18 7,-5.65 0.5,-2.84 -1,-4.64 -2.8,-6.83 -5.73,-6.67 -3.1,16.37 -11.32,19.46 -1.26,0.47 -2.01,1.09 -3.34,0.89 -3.34,-0.5 1.83,-5.81 0.01,-8.64 -1.64,-2.54 -6.69,-0.64 -6.83,-3.66 -0.15,-3.29 5.86,-0.65 7.75,-3.34 2.88,-4.09 -8.36,-9.95 -3.9,-12.23 2.51,-1.29 4.44,1.49 7.17,0.82 2.07,-0.5 3.52,-0.93 4.77,-2.65 2.69,-3.7 -9.61,-7.89 -5.7,-10.28 2.41,-1.46 6.07,3.42 7.19,0.83 0.8,-1.83 -0.37,-3.35 -1.72,-4.82 -2.45,-2.68 -6.48,-2.63 -9.31,-0.35 -2.86,2.3 1.97,8.33 -1.58,9.27 -3.05,0.82 -3.43,-5.52 -6.5,-4.8 -3.14,0.75 -0.33,7.83 -3.53,7.49 -1.98,-0.22 -2.97,-1.61 -3.81,-3.41 -1.27,-2.74 4.51,-6.98 1.56,-7.59 -1.33,-0.26 -2.22,0.16 -3.35,0.9 -2.52,1.66 1.35,6.76 -1.56,7.58 -2.01,0.57 -3.35,-0.71 -4.97,-2.05 -3.85,-3.17 3.26,-10.66 -1.29,-12.71 -1.49,-0.68 -2.73,-1.37 -4.16,-0.58 -1.43,0.79 -0.08,3.8 -1.72,3.83 -1.34,0.03 -1.93,-1.25 -2.35,-2.53 -0.9,-2.65 2.28,-3.98 4.65,-5.46 2.29,-1.42 4.44,-0.28 6.68,-1.78 1.13,-0.75 1.97,-1.14 2.53,-2.37 1.07,-2.32 -0.04,-5.13 -2.41,-6.09 -1.36,-0.55 -2.38,-0.33 -3.75,0.16 -2.77,0.98 -1.49,5.21 -4.25,6.19 -4.2,1.49 -5.04,-11.03 -8.23,-7.92 -1.17,1.14 -0.27,3.06 -1.71,3.83 -2.34,1.24 -2.37,-3.39 -4,-5.46 -6.7,-8.57 -19.77,-30.22 -20.07,-19.35 -0.09,3.11 3.26,5.3 1.45,7.83 -2.44,3.41 -7.56,-0.63 -9.94,-4.09 -1.13,-1.64 -0.81,-3.03 -1.71,-4.81 -4,-7.96 5.55,25.8 -2.79,22.67 -2.06,-0.77 -4.31,-1.02 -4.65,-3.19 -0.25,-1.62 1.79,-2.19 1.72,-3.83 -0.07,-1.64 -0.81,-2.58 -2.03,-3.67 -2.07,-1.82 -4.67,0.54 -7,-0.92 -5.39,-3.38 -1.26,-13.01 4.5,-15.7 3.46,-1.61 6.21,1.66 9.79,0.34 6.99,-2.58 9.21,-10.5 7.23,-17.69 -0.76,-2.76 -0.72,-6.05 -3.56,-6.42 -1.34,-0.17 -2.15,0.26 -3.35,0.89 -2.52,1.34 -1.55,4.74 -4.06,6.1 -4.46,2.4 5.62,-10.39 1.24,-12.93 -2.73,-1.58 -5.18,1.91 -8.05,0.63 -1.89,-0.85 -2.91,-1.79 -3.92,-3.6 -1,-1.81 0.4,-3.67 -0.97,-5.22 -2.53,-2.86 -1.25,7.35 -4.9,8.48 -4.2,1.29 -6.15,-9.44 -9.29,-6.37 -1.83,1.79 0.23,4.34 -1.23,6.44 -0.77,1.11 -1.4,1.62 -2.53,2.36 -6.24,4.07 -10.79,-18.02 -14.97,-11.86 -3.22,4.73 9.63,13.26 3.98,14.12 -1.62,0.24 -2.53,-0.78 -4.16,-0.58 -5.84,0.73 8.69,7.48 7.33,13.22 -0.38,1.59 -0.4,2.85 -1.72,3.83 -2.68,1.99 -2.31,-5.67 -5.53,-6.53 -5.64,-1.51 3.26,16.24 -2.38,14.75 -1,-0.26 -1.75,-0.63 -2.41,-1.13 0.35,-2.7 -0.01,-5.12 -2.06,-7.29 0.37,-2.71 1.35,-5.1 -0.33,-7.15 -1.39,-1.7 -3.2,-1.53 -4.64,-3.19 -4.18,-4.79 6.08,-11.75 1.56,-16.22 -1.04,-1.03 -2.08,-1.07 -3.1,-2.13 -2.93,-3.08 2.88,-9.66 -1.21,-10.84 -1.99,-0.58 -3.32,0.14 -5.22,0.97 -3.13,1.37 -2.75,6.84 -6.12,6.28 -2.56,-0.44 -1.93,-4.29 -4.44,-4.99 -1.41,-0.38 -2.5,-0.59 -3.75,0.16 -2.51,1.53 2.67,4.36 2.09,7.24 -0.34,1.74 -0.79,2.82 -2.08,4.04 -3.76,3.53 -1.38,-12.73 -6.41,-11.57 -1.43,0.33 -2.37,0.69 -3.31,1.83 -2.23,2.74 4.09,4.8 3.65,8.3 -0.3,2.35 -0.76,4.18 -2.78,5.39 -2.59,1.54 -6.28,-4.28 -7.58,-1.56 -0.64,1.32 0.94,2.51 0.16,3.75 -0.66,1.04 -1.54,1.33 -2.76,1.53 -1.65,0.27 -2.41,-0.8 -2.9,-2.33 7.07,-8.63 1.57,-12.67 -8.54,-14.93 2.04,-2.87 3.76,-5.84 2.34,-9.13 -1.86,-4.28 -7.5,-3.98 -8.35,-8.57 -0.67,-3.58 5.12,-6.57 2.43,-9.03 -2.11,-1.92 -4.85,-1.21 -7.32,0.22 -1.17,0.68 -1.91,1.16 -2.53,2.36 -1.23,2.4 4.16,5.41 1.79,6.69 -1.45,0.77 -3.02,-1.76 -4.16,-0.58 -1.01,1.06 -0.35,2.38 0.16,3.75 1.08,2.9 6.78,0.76 6.93,3.85 0.08,1.63 -0.5,2.74 -1.72,3.83 -2.84,2.54 -6.12,-1.9 -8.47,-4.91 -2.5,-3.18 0.43,-7.44 -2.69,-10.03 -1.6,-1.34 -5.27,0.03 -4.96,-2.04 0.19,-1.34 2.36,-1.02 2.52,-2.36 0.15,-1.22 -0.65,-1.89 -1.52,-2.75 -3.02,-3.01 -9.16,1.05 -9.55,5.28 -0.2,2.23 0.52,3.7 2.01,5.37 0.98,1.09 2.11,1.04 3.1,2.12 3.15,3.45 3.28,9.7 -0.8,11.97 l -4.53,0.69 c -2.91,-1.02 -2.62,-5.69 -4.01,-9.16 -1.11,-2.8 0.43,-5.92 -2.19,-7.42 -1.42,-0.82 -2.55,-0.89 -4.16,-0.58 -4.27,0.83 0.09,8.51 -3.78,10.49 -1.2,0.63 -2.05,1.27 -3.34,0.9 -1.31,-0.38 -1.66,-1.38 -2.37,-2.53 -1.42,-2.32 1.76,-7.05 -0.95,-6.91 -2.36,0.12 -0.75,4.17 -2.78,5.38 -1.09,0.65 -1.93,1.13 -3.16,0.79 -1.65,-2.55 -2.07,-3 -2.53,-3.36 -0.03,-1.06 0.63,-1.95 0.56,-3.23 -0.35,-6.33 -4.15,-12.65 -10.48,-12.42 -7.03,0.26 -4.95,11 -0.97,17.91 l -6.5,-1.86 c 0.97,-1.58 1.57,-2.83 1.31,-4.76 -0.63,-4.54 -12.4,1 -11.24,-3.44 0.71,-2.72 6.73,-1.76 5.73,-4.39 -0.71,-1.86 -2.59,-2.15 -4.57,-2.27 -2.5,-0.16 -4.64,1.13 -5.87,3.13 -2.49,-0.6 -3.75,0.37 -5.36,1.54 -1.47,1.07 -1.55,2.65 -1.18,4.39 l -6.76,-1.53 c -1.56,-2.66 -1.69,-2.12 -1.35,-0.28 l -6.26,-1.09 c -0.17,-0.97 -0.52,-1.86 -1.41,-2.64 1.83,-1.94 4.61,0.43 7.76,-1.04 6.74,-3.18 8.26,-11.27 5.66,-18.26 -1,-2.68 -1.25,-5.97 -4.11,-6.09 -1.34,-0.06 -2.12,0.45 -3.25,1.19 -2.4,1.55 -1.13,4.84 -3.51,6.42 -4.23,2.78 4.69,-10.84 0.11,-12.99 -2.86,-1.33 -5,2.36 -7.98,1.33 -1.95,-0.68 -3.05,-1.52 -4.2,-3.24 -1.17,-1.72 0.07,-3.69 -1.43,-5.11 -2.77,-2.63 -0.61,7.43 -4.14,8.87 -4.07,1.65 -6.95,-8.87 -9.81,-5.54 -1.67,1.94 0.6,4.3 -0.67,6.53 -0.67,1.17 -1.25,1.73 -2.31,2.57 -5.86,4.6 -12.32,-17.01 -15.95,-10.51 -2.79,4.99 10.76,12.36 5.2,13.71 -1.59,0.39 -2.59,-0.55 -4.2,-0.21 -5.76,1.23 9.31,6.69 8.45,12.53 -0.23,1.62 -0.14,2.87 -1.37,3.96 -2.5,2.22 -2.8,-5.45 -6.09,-6.02 -5.74,-1.01 4.66,15.89 -1.08,14.91 -2.13,-0.36 -3.25,-1.31 -4.73,-2.88 -3.28,-3.51 1.95,-8.79 -1.41,-12.22 -1.53,-1.57 -3.32,-1.25 -4.9,-2.77 -4.58,-4.41 5.03,-12.24 0.14,-16.3 -1.12,-0.93 -2.17,-0.88 -3.27,-1.84 -3.18,-2.82 2.03,-9.88 -2.15,-10.7 -2.03,-0.4 -3.3,0.43 -5.11,1.42 -3,1.64 -2.15,7.05 -5.55,6.78 -2.6,-0.2 -2.3,-4.1 -4.86,-4.57 -1.44,-0.26 -2.54,-0.38 -3.72,0.49 -2.38,1.73 3.03,4.11 2.71,7.02 -0.19,1.77 -0.54,2.89 -1.72,4.2 -3.44,3.85 -2.5,-12.55 -7.39,-10.96 -1.41,0.46 -2.31,0.9 -3.14,2.12 -1.99,2.92 4.49,4.42 4.35,7.95 -0.09,2.35 -0.38,4.21 -2.3,5.6 -2.45,1.76 -6.62,-3.71 -7.68,-0.89 -0.52,1.37 1.15,2.42 0.48,3.72 -0.57,1.09 -1.42,1.46 -2.61,1.76 -3.33,0.86 -3.4,-4.23 -4.92,-7.31 -1.25,-2.48 0.28,-6.4 -2.49,-6.68 -1.34,-0.13 -2.13,0.44 -3.25,1.19 -3.93,2.62 4.71,12.95 0.06,12.1 -2.34,-0.42 -3.22,-2.04 -4.68,-3.93 -5.04,-6.56 7.86,-13.58 3.91,-20.86 -2.22,-4.1 -7.81,-3.32 -9.06,-7.81 -0.98,-3.52 4.53,-6.99 1.63,-9.21 -2.27,-1.73 -4.93,-0.78 -7.27,0.85 -1.11,0.78 -1.8,1.33 -2.31,2.58 -1.03,2.5 4.62,5.03 2.36,6.51 -1.37,0.9 -3.16,-1.48 -4.19,-0.21 -0.92,1.14 -0.14,2.4 0.49,3.72 1.32,2.79 6.82,0.16 7.23,3.22 0.21,1.62 -0.26,2.77 -1.38,3.97 -2.61,2.78 -6.25,-1.36 -8.87,-4.15 -2.77,-2.95 -0.22,-7.45 -3.54,-9.75 -1.73,-1.2 -5.26,0.48 -5.13,-1.6 0.07,-1.35 2.27,-1.23 2.31,-2.59 0.04,-1.22 -0.82,-1.82 -1.76,-2.6 -3.26,-2.73 -9.04,1.85 -9.05,6.1 -0.01,2.23 0.85,3.64 2.47,5.17 1.07,1 2.2,0.85 3.28,1.84 3.44,3.16 4.11,9.38 0.24,11.99 -1.12,0.76 -1.91,1.1 -3.26,1.19 -4.17,0.27 -4.11,-5.15 -5.98,-8.88 -1.36,-2.69 -0.1,-5.93 -2.84,-7.2 -1.48,-0.69 -2.62,-0.66 -4.19,-0.21 -4.18,1.2 0.83,8.47 -2.85,10.78 -1.14,0.72 -1.93,1.44 -3.26,1.19 -1.32,-0.26 -1.76,-1.23 -2.57,-2.32 -1.62,-2.19 1.15,-7.18 -1.55,-6.8 -2.34,0.32 -0.38,4.22 -2.3,5.6 -1.03,0.74 -1.83,1.29 -3.08,1.06 -1.32,-0.24 -1.98,-1.1 -2.57,-2.31 -0.69,-1.43 0.26,-2.51 0.04,-4.08 -0.91,-6.27 -5.24,-12.24 -11.53,-11.46 -7.99,0.99 -2.89,14.65 2.67,20.48 1.43,1.49 4.09,1.16 4.21,3.23 -3.13,-0.29 -6.25,-1.06 -9.41,-1.83 0.11,-0.85 0,-1.69 -0.63,-2.53 l -6.94,0.74 c -1.56,-0.58 -2.06,-0.62 -2.54,-0.59 l -8.1,-1.83 c 1.58,-1.66 3.1,-3.37 2.52,-5.64 -0.68,-2.7 -1.23,-5.54 -3.99,-5.91 -1.97,-0.27 -3.14,0.81 -4.64,2.12 -2.37,2.05 -0.48,5.25 0.67,8.23 l -15.67,-3.36 c -0.27,-1.7 -0.39,-3.37 -2,-4.55 -1.69,-1.24 -3.06,-1.96 -5.13,-1.6 -1.97,0.34 -1.94,2.19 -1.77,4.27 -102.1,-21.5 -218,-45.56 -227.01,-154.83 -35.01,-0.11 -136.5,-192.79 -139.38,-230.16 -2.01,-25.91 1.08,-52.06 -0.22,-78.02 -18.44,-1.49 -36.68,3.26 -55.11,2.37 -6.81,65.71 -25.25,130.14 -25.25,196.54 0,77.84 59.89,140.89 60.43,218.63 -39.77,16.02 -80.15,30.48 -120.38,45.3 -1.87,-2.85 -0.59,-9.94 -2.94,-7.72 -1.48,1.4 -0.27,3.33 -1.4,5.01 -1.13,1.68 -2.21,2.51 -4.12,3.17 -2.91,1.02 -5.01,-2.6 -7.8,-1.29 -4.5,2.09 4.24,15.44 0.1,12.71 -2.34,-1.54 -1.1,-4.77 -3.44,-6.29 -1.11,-0.72 -1.87,-1.21 -3.19,-1.16 -2.8,0.12 -3.05,3.34 -4.03,5.97 -2.54,6.84 -1.05,14.76 5.55,17.87 3.09,1.45 5.81,-0.87 8.72,0.12 -1.99,1.66 -2.33,2.54 -2.5,3.49 l -6.13,1.08 c 0.33,-1.8 0.2,-2.34 -0.91,-0.54 l -7.03,2.3 c 0.36,-1.7 0.28,-3.25 -1.16,-4.29 -1.58,-1.15 -2.81,-2.11 -4.71,-1.68 -1.75,-1.79 -3.84,-3.06 -6.28,-2.91 -1.94,0.13 -3.79,0.41 -4.48,2.23 -0.98,2.58 4.91,1.63 5.62,4.3 1.13,4.35 -10.4,-1.08 -11.01,3.37 -0.27,1.89 0.33,3.12 1.28,4.66 l -6.37,1.82 c 3.91,-6.76 5.94,-17.29 -0.94,-17.54 -6.21,-0.22 -9.93,5.97 -10.27,12.17 -0.07,1.25 0.58,2.12 0.55,3.17 -1.59,1.86 -1.7,2.39 -1.67,2.93 -2.01,0.68 -2.84,0.21 -3.91,-0.43 -1.99,-1.18 -0.41,-5.15 -2.72,-5.26 -2.66,-0.14 0.46,4.49 -0.93,6.77 -0.69,1.12 -1.04,2.1 -2.31,2.47 -1.28,0.37 -2.1,-0.26 -3.28,-0.87 -3.79,-1.95 0.48,-9.47 -3.7,-10.28 -1.57,-0.31 -2.68,-0.24 -4.07,0.56 -2.57,1.47 -1.06,4.53 -2.15,7.27 -1.36,3.39 -1.08,7.98 -3.93,8.97 l -2.37,0.12 c -6.07,-3.02 -5.94,-9.14 -2.85,-12.51 0.97,-1.06 2.08,-1.02 3.03,-2.08 1.46,-1.63 2.17,-3.08 1.98,-5.26 -0.38,-4.15 -6.4,-8.12 -9.35,-5.18 -0.86,0.85 -1.64,1.51 -1.5,2.7 0.16,1.31 2.29,1.01 2.48,2.31 0.3,2.04 -3.29,0.69 -4.87,2 -3.05,2.54 -0.17,6.71 -2.62,9.83 -2.31,2.94 -5.52,7.29 -8.3,4.8 -1.2,-1.07 -1.76,-2.15 -1.68,-3.75 0.14,-3.03 5.72,-0.93 6.78,-3.77 0.5,-1.34 1.15,-2.63 0.15,-3.67 -1.1,-1.15 -2.66,1.33 -4.07,0.56 -2.33,-1.25 2.97,-4.19 1.75,-6.54 -0.6,-1.18 -1.33,-1.65 -2.48,-2.32 -2.41,-1.4 -5.09,-2.1 -7.16,-0.21 -2.64,2.41 3.04,5.33 2.38,8.84 -0.83,4.49 -6.36,4.2 -8.17,8.39 -1.4,3.23 0.28,6.13 2.28,8.95 -9.89,2.21 -15.29,6.17 -9.13,13.81 0.29,2.31 -0.45,3.35 -2.07,3.08 -1.19,-0.19 -2.06,-0.48 -2.7,-1.49 -0.77,-1.21 0.78,-2.38 0.16,-3.67 -1.28,-2.67 -4.89,3.04 -7.43,1.52 -1.98,-1.19 -2.43,-2.97 -2.71,-5.27 -0.45,-3.43 5.75,-5.44 3.56,-8.12 -0.91,-1.13 -1.83,-1.47 -3.24,-1.8 -4.92,-1.14 -2.6,14.79 -6.27,11.32 -1.27,-1.18 -1.71,-2.24 -2.04,-3.95 -0.57,-2.82 4.51,-5.59 2.05,-7.09 -1.23,-0.74 -2.3,-0.53 -3.68,-0.15 -2.46,0.68 -1.84,4.45 -4.35,4.88 -3.3,0.55 -2.93,-4.8 -5.99,-6.15 -1.86,-0.81 -3.17,-1.52 -5.12,-0.95 -4,1.16 1.69,7.6 -1.18,10.62 -0.99,1.04 -2.01,1.07 -3.03,2.08 -4.43,4.38 5.62,11.19 1.53,15.89 -1.42,1.62 -3.19,1.46 -4.55,3.12 -1.65,2.01 -0.68,4.35 -0.32,7.01 -2.02,2.12 -2.36,4.49 -2.02,7.13 -0.64,0.5 -1.39,0.86 -2.36,1.11 -5.51,1.45 3.19,-15.92 -2.33,-14.45 -3.16,0.84 -2.79,8.34 -5.42,6.4 -1.29,-0.96 -1.31,-2.2 -1.68,-3.75 -1.33,-5.62 12.9,-12.24 7.17,-12.95 -1.59,-0.2 -2.48,0.8 -4.07,0.57 -5.53,-0.85 7.05,-9.2 3.9,-13.82 -4.1,-6.04 -8.55,15.6 -14.66,11.61 -1.11,-0.73 -1.73,-1.23 -2.48,-2.32 -1.42,-2.05 0.59,-4.55 -1.2,-6.3 -3.08,-3.01 -4.99,7.5 -9.1,6.23 -3.57,-1.1 -2.32,-11.1 -4.8,-8.29 -1.34,1.51 0.03,3.33 -0.95,5.1 -0.98,1.78 -1.98,2.69 -3.83,3.52 -2.81,1.27 -5.22,-2.15 -7.89,-0.61 -4.29,2.48 5.58,15.01 1.21,12.66 -2.46,-1.33 -1.51,-4.65 -3.97,-5.97 -1.17,-0.61 -1.97,-1.04 -3.28,-0.87 -2.79,0.36 -2.74,3.58 -3.49,6.29 -1.94,7.04 0.24,14.79 7.09,17.32 3.5,1.29 6.19,-1.91 9.58,-0.33 5.65,2.64 9.69,12.06 4.4,15.37 -2.28,1.43 -4.83,-0.88 -6.84,0.9 -1.2,1.07 -1.93,2 -2,3.6 -0.07,1.6 1.93,2.17 1.68,3.75 -0.32,2.12 -2.53,2.36 -4.54,3.12 -8.17,3.06 1.17,-30 -2.74,-22.19 -0.88,1.74 -0.56,3.1 -1.67,4.71 -2.33,3.38 -7.35,7.34 -9.74,4 -1.77,-2.48 1.51,-4.63 1.43,-7.67 -0.31,-10.65 -13.1,10.56 -19.67,18.94 -1.59,2.04 -1.62,6.57 -3.91,5.36 -1.41,-0.75 -0.53,-2.63 -1.68,-3.75 -3.12,-3.05 -3.94,9.21 -8.05,7.75 -2.7,-0.96 -1.46,-5.11 -4.16,-6.06 -1.35,-0.48 -2.35,-0.7 -3.68,-0.16 -2.32,0.93 -3.4,3.69 -2.36,5.97 0.55,1.2 1.37,1.58 2.47,2.32 2.2,1.46 4.31,0.35 6.55,1.74 2.33,1.46 5.43,2.75 4.56,5.35 -0.42,1.25 -0.99,2.5 -2.31,2.48 -1.61,-0.04 -0.28,-2.98 -1.68,-3.75 -1.41,-0.78 -2.62,-0.1 -4.08,0.56 -4.44,2.01 2.5,9.35 -1.26,12.46 -1.58,1.3 -2.9,2.55 -4.87,2 -2.84,-0.81 0.95,-5.8 -1.53,-7.43 -1.1,-0.73 -1.97,-1.14 -3.27,-0.87 -2.9,0.59 2.78,4.74 1.53,7.42 -0.83,1.77 -1.79,3.13 -3.73,3.34 -3.14,0.34 -0.39,-6.6 -3.47,-7.32 -3,-0.71 -3.38,5.49 -6.36,4.7 -3.47,-0.93 1.25,-6.83 -1.55,-9.09 -2.76,-2.23 -6.72,-2.27 -9.12,0.36 -1.32,1.43 -2.43,2.91 -1.67,4.71 1.08,2.53 4.67,-2.25 7.03,-0.81 3.83,2.33 -8.23,6.44 -5.58,10.06 1.22,1.69 2.65,2.1 4.67,2.6 2.67,0.65 4.57,-2.07 7.03,-0.81 4.36,2.24 -6.65,7.98 -3.83,11.98 1.86,2.64 7.74,0.05 7.59,3.27 -0.13,2.95 -5.08,1.09 -6.68,3.58 -1.79,2.77 3.27,7.98 0.01,8.47 -1.31,0.18 -2.04,-0.41 -3.28,-0.88 -8.04,-3.02 -5.47,-25.59 -11.06,-19.06 -1.83,2.15 -3.26,3.91 -2.76,6.69 0.6,3.4 6.51,2.11 6.9,5.54 0.15,1.4 0.29,2.53 -0.67,3.56 -1.74,1.88 -3.47,-4.38 -5.75,-3.19 -2.62,1.37 3.22,5.01 1.52,7.43 -0.82,1.18 -1.71,1.51 -3.03,2.08 -3.93,1.7 -9.02,-6.12 -10.76,-2.21 -0.57,1.28 -0.85,2.27 -0.34,3.57 0.49,1.24 1.75,1.22 2.48,2.32 l 9.27,6.83 c -2.78,5.78 -4.14,12.77 -3.91,19.31 h -3.84 c -0.6,1.17 -0.91,2.49 -0.81,3.89 0.25,3.46 4.91,3.94 4.93,7.4 0.04,4.04 -8.23,4.33 -6.57,8.01 0.84,1.88 2.18,2.6 4.11,3.3 3.08,1.1 4.96,-1.93 8.22,-1.65 1.18,0.1 2.41,0.27 3.62,0.52 1.9,1.91 4.03,3.79 6.36,5.79 1.79,7.17 -8.52,4.08 -9.15,9.31 -0.25,1.94 -0.48,3.48 0.81,4.94 1.82,2.03 4.43,0.92 6.99,0 4.22,-1.52 2.36,-8.43 5.62,-10.29 1.8,1.73 3.59,3.48 5.4,5 -1.44,0.99 -2.87,2.06 -2.59,3.64 0.25,1.41 0.63,2.27 1.65,3.29 1.95,1.95 4.47,-1.6 6.8,-3.16 1.17,0.46 2.35,0.72 3.54,0.7 0.63,3.3 -10.32,8.83 -6.24,9.04 3.21,0.15 3.61,-3.73 6.58,-4.94 4.39,-1.78 8.31,-2.78 12.13,0 3.37,2.46 4.78,5.75 4.12,9.87 -0.29,1.71 -1.61,2.38 -1.65,4.11 -0.03,1.32 1.05,1.99 0.82,3.29 -0.55,3.16 -5.49,1.67 -8.23,0 -3.43,-2.11 -0.23,-12.72 -3.07,-9.87 -1.02,1.02 -0.42,2.55 -1.65,3.29 -1.74,1.05 -2.94,-1.3 -4.93,-1.65 -7.78,-1.32 -21.66,2.02 -18.09,9.05 2.81,5.54 10.03,5.79 15.62,3.08 1.4,-0.67 1.75,-2.04 3.29,-2.25 1.31,-0.2 2.36,-0.13 3.29,0.81 0.87,0.89 0.86,1.85 0.82,3.09 -0.06,2.31 -4.31,2.86 -3.29,4.93 1.17,2.4 3.71,-2.58 6.37,-2.46 1.32,0.05 2.36,-0.12 3.29,0.82 0.94,0.93 0.78,1.96 0.82,3.29 0.14,4.25 -8.51,4.16 -7.19,8.21 0.5,1.53 1.1,2.47 2.47,3.29 2.53,1.53 4.46,-1.26 7.4,-1.64 4.05,-0.52 8.42,-3.53 10.48,0 0.66,1.14 0.82,1.97 0.82,3.29 0,4.58 -5.41,7.44 -9.87,6.37 -1.39,-0.33 -1.89,-1.33 -3.28,-1.64 -2.14,-0.49 -3.74,-0.41 -5.55,0.82 -3.45,2.34 -4.01,9.53 0,10.69 1.15,0.33 2.11,0.7 3.08,0 1.07,-0.78 -0.23,-2.49 0.82,-3.29 1.49,-1.13 2.08,1.89 3.62,3.01 -0.21,0.78 -0.3,1.59 -0.19,2.87 -4.42,2.58 -8.42,3.33 -13.4,0.6 l -18.71,-0.6 c -0.61,1.17 -0.92,2.48 -0.82,3.89 0.25,3.46 4.91,3.93 4.94,7.4 0.02,4.04 -8.25,4.32 -6.58,8.01 0.84,1.88 2.18,2.6 4.11,3.29 3.08,1.11 4.96,-1.92 8.22,-1.64 5.69,0.48 12.52,2.51 12.13,8.22 -0.36,5.25 -10.67,2.17 -11.31,7.4 -0.24,1.93 -0.48,3.47 0.82,4.93 1.82,2.04 4.43,0.92 6.99,0 4.65,-1.67 1.91,-9.88 6.78,-10.69 2.61,-0.44 5.18,-0.6 6.58,1.65 1.84,2.94 -5.53,3.98 -4.93,7.4 0.25,1.41 0.63,2.27 1.64,3.28 2.87,2.87 6.94,-6.09 10.22,-2.81 0.22,3.93 -10.08,9.2 -6.1,9.39 3.2,0.16 3.6,-3.72 6.57,-4.93 1.58,2.42 2.67,5.03 3.95,7.58 -0.79,1 -0.32,2.41 -1.48,3.11 -1.74,1.04 -2.94,-1.3 -4.93,-1.65 -7.78,-1.33 -21.66,2.01 -18.09,9.04 2.81,5.54 10.03,5.8 15.61,3.09 1.41,-0.68 1.75,-2.04 3.3,-2.26 1.31,-0.19 2.36,-0.12 3.29,0.82 0.87,0.89 0.85,1.84 0.82,3.08 -0.07,2.32 -4.31,2.86 -3.29,4.94 1.17,2.39 3.71,-2.59 6.37,-2.47 1.32,0.05 2.35,-0.11 3.29,0.82 0.93,0.93 0.78,1.97 0.82,3.29 0.14,4.26 -8.51,4.17 -7.19,8.22 0.49,1.53 1.09,2.46 2.46,3.29 2.53,1.53 4.47,-1.27 7.4,-1.64 4.06,-0.52 8.42,-3.53 10.48,0 0.67,1.14 0.83,1.97 0.83,3.28 0,4.58 -5.41,7.44 -9.87,6.38 -1.39,-0.34 -1.89,-1.33 -3.28,-1.64 -2.14,-0.49 -3.74,-0.41 -5.56,0.82 -3.44,2.33 -4,9.53 0,10.68 1.16,0.34 2.11,0.71 3.09,0 1.07,-0.77 -0.23,-2.49 0.82,-3.29 1.63,-1.24 2.2,2.55 4.11,3.29 3.7,1.44 5.95,-3.1 9.86,-2.46 3.69,0.59 9.06,1.28 8.23,4.93 -0.36,1.56 -1.03,2.58 -2.47,3.28 -2.71,1.35 -3.58,-4.55 -6.58,-4.1 -1.41,0.21 -2.86,0.27 -3.29,1.64 -0.46,1.53 2.45,1.68 2.47,3.29 0.03,2.64 -5.11,-0.56 -6.58,1.65 -0.73,1.09 -0.79,1.96 -0.82,3.28 -0.05,2.8 0.64,5.48 3.29,6.37 3.39,1.14 3.19,-5.24 6.58,-6.37 4.34,-1.44 6.76,3.53 11.3,3.08 8.07,-0.78 6.71,-15.09 14.8,-14.59 l 2.24,0.13 c 2.1,4.78 -3.04,1.58 -4.51,3.77 -0.55,0.83 -0.72,1.52 -0.79,2.38 -1.04,3.26 -1.08,4.22 -0.23,5.23 1.97,1.29 2.63,1.76 3.49,2.06 2.21,0.74 2.89,-1.72 4.04,-3.84 3.19,-0.68 6.84,-2.8 7.89,0.14 0.4,1.13 0.57,2.02 0,3.08 -0.69,1.26 -2.46,0.48 -3.29,1.64 -1.71,2.41 5.03,2.8 4.93,5.76 -0.07,2.31 -1.42,3.56 -3.29,4.93 -2.79,2.05 -7.55,-2.39 -8.84,0.83 -0.53,1.34 -0.39,2.31 0,3.69 1.39,4.86 14.2,-4.89 12.95,0 -0.42,1.69 -1.14,2.59 -2.46,3.7 -2.2,1.86 -7.09,-1.23 -7.19,1.65 -0.06,1.43 0.63,2.26 1.63,3.29 1.79,1.82 4.79,-0.56 6.38,1.44 2.09,2.61 -2.77,4.89 -2.47,8.22 0.19,2.01 0.21,3.5 1.65,4.93 2.95,2.94 5.83,-5.16 9.87,-4.11 1.38,0.36 1.91,1.24 3.28,1.65 5.98,1.74 7.07,-10.35 13.16,-9.05 2.1,0.45 2.81,2.08 4.93,2.47 0.17,1.91 0.25,3.34 1.63,4.73 0.69,0.68 1.39,0.76 2.48,1.03 2.27,2.35 8.65,-1.61 8.22,1.64 -0.21,1.59 -1.28,2.21 -2.46,3.29 -4.27,3.88 -16.96,-5.36 -14.8,0 0.59,1.48 1.91,1.78 2.46,3.28 1.95,5.26 -11.45,-1.71 -13.97,3.29 -3.29,6.51 17.79,-0.08 17.26,7.2 -0.09,1.32 -0.23,2.1 -0.82,3.28 -1.11,2.25 -4.27,1.7 -4.93,4.11 -1.14,4.15 8.98,0.73 9.86,4.94 0.77,3.66 -8.58,7.41 -4.93,8.22 1.98,0.44 2.9,-1.64 4.93,-1.64 2.03,0 3.31,0.43 4.94,1.64 2.47,1.85 0.64,5.61 3.28,7.2 4.26,2.54 10.43,-12.16 10.49,-7.2 0.02,2.8 -3.34,3.57 -3.29,6.37 0.02,1.32 0.03,2.23 0.82,3.29 1.67,2.26 4.47,0.66 7.19,0 7.1,-1.71 12.83,-7.38 11.72,-14.59 0.8,-0.59 1.67,-0.14 2.66,0.61 2.47,1.85 0.65,5.61 3.3,7.2 -1.23,4.36 20.21,5.25 29.8,6.78 2.55,0.41 6.54,-1.76 6.58,0.82 0.03,1.6 -2.04,1.74 -2.47,3.29 -1.15,4.21 9.98,-1.01 10.69,3.29 0.47,2.83 -3.76,3.75 -3.29,6.58 0.24,1.41 0.53,2.38 1.65,3.29 1.95,1.57 4.88,1.19 6.37,-0.83 0.79,-1.06 0.71,-1.97 0.82,-3.28 0.22,-2.64 -1.78,-3.94 -1.65,-6.58 0.14,-2.74 -0.22,-6.09 2.48,-6.58 1.29,-0.24 2.66,-0.35 3.28,0.82 0.75,1.42 -2.46,1.68 -2.46,3.29 0,1.61 1.18,2.33 2.46,3.29 3.92,2.91 6.97,-6.72 11.51,-4.93 1.91,0.75 3.64,1.28 4.11,3.28 0.68,2.88 -5.53,1.99 -5.75,4.94 -0.1,1.32 -0.04,2.28 0.82,3.29 1.92,2.24 2.81,-4.73 5.76,-4.94 1.31,-0.09 2.49,-0.04 3.48,0.62 0.19,1.15 0.42,2.01 1.1,2.77 -1.32,1.48 -5.22,2.58 -4.58,4.84 0.83,2.96 6.44,0.29 7.19,3.28 0.87,3.49 -6.58,2.22 -7.19,5.76 -0.61,3.51 1.26,6.98 4.72,7.81 1.9,0.45 3.74,0.72 4.94,-0.82 1.69,-2.18 -4.23,-3 -4.12,-5.76 0.19,-4.48 9.62,4.07 11.51,0 0.88,-1.89 0.55,-3.33 0,-5.34 -0.72,-2.66 -4.01,-3 -4.1,-5.76 -0.16,-4.9 10.19,1.95 12.32,-2.46 1.41,-2.91 -3.7,-6.8 -0.82,-8.23 1.74,1.94 1.8,2.9 2.67,3.91 2.45,-0.16 3.02,0.16 3.71,0.2 1.26,0.09 2.37,-0.89 3.34,-1.99 l 2.6,0.85 c -1.63,1.2 -4.45,2.29 -3.9,4.23 0.48,1.69 2.52,1.55 4.32,1.67 -4.71,6.42 -16.01,11.99 -9.45,13.33 2.46,0.51 4.51,0.87 6.48,-0.31 0.82,1.04 1.97,1.83 3.38,2.16 1.89,0.45 3.73,0.72 4.93,-0.82 1.69,-2.18 -4.22,-3 -4.11,-5.76 0.96,1.05 2.38,2.29 4.2,2.13 1.19,-0.1 2.22,-0.1 3.04,-1.5 1.9,0.59 3.66,0.67 4.49,-1.15 0.75,3.43 -1.36,8.63 2.05,8.34 0.89,-0.08 1.62,-0.2 2.26,-0.56 -0.03,0.83 0.2,1.52 0.53,2.45 0.96,2.63 2.56,4.89 5.36,4.77 3.56,-0.14 1.1,-6.04 3.85,-8.31 2.34,-1.92 4.91,-0.91 7.56,-0.6 v -20.98 c 4.59,-0.76 4.94,6.25 7.46,4.59 2.19,-1.45 -2.54,-6.09 0,-6.72 1.4,-0.35 2.34,0.34 3.51,1.18 2.88,2.03 -1.21,6.68 1.53,8.89 2.23,1.82 4.52,1.42 7.34,0.84 8.43,-1.72 -12,-10.28 -11.59,-18.8 4.65,6.14 10.8,8.85 19.7,5.9 3.45,-0.57 7.1,-1.8 7.01,1.15 -0.1,2.82 -3.46,3.16 -4.2,5.88 -0.56,2.05 -0.9,3.52 0,5.45 1.93,4.16 11.56,-4.58 11.75,0 0.12,2.82 -5.93,3.66 -4.2,5.88 1.22,1.57 3.11,1.31 5.04,0.84 3.53,-0.85 5.45,-4.39 4.83,-7.98 -0.63,-3.61 -8.24,-2.31 -7.35,-5.87 0.77,-3.06 6.49,-0.33 7.35,-3.36 0.87,-3.11 -6.69,-4.08 -4.83,-6.71 1.14,-1.63 2.84,-1.83 4.83,-1.68 3.01,0.21 3.91,7.32 5.87,5.03 0.88,-1.02 0.95,-2.01 0.84,-3.35 -0.23,-3.01 -6.57,-2.1 -5.87,-5.04 0.47,-2.04 2.24,-2.59 4.2,-3.36 0.87,-0.34 1.68,-0.28 2.47,0.05 -0.96,1.39 -1.31,2.73 -0.04,3.97 1.45,1.43 2.7,2.05 4.72,2.18 2.95,-0.48 3.75,-0.54 4.6,-1.16 1.31,-0.98 2.52,-1.72 2.52,-3.36 -0.95,-2.33 -0.25,-2.75 0.69,-2.81 0.86,-0.05 1.54,0.15 2.19,0.42 0.49,1.36 0.39,3.25 0.47,4.91 0.14,2.69 -1.9,4.02 -1.68,6.71 0.12,1.35 0.04,2.27 0.84,3.36 1.52,2.06 4.52,2.45 6.51,0.84 1.14,-0.92 1.44,-1.91 1.68,-3.36 0.48,-2.89 -3.84,-3.82 -3.36,-6.71 0.73,-4.4 12.09,0.93 10.91,-3.36 -0.43,-1.58 -2.54,-1.72 -2.51,-3.36 0.05,-2.64 4.11,-0.42 6.71,-0.84 7.38,-1.17 21.64,-1.98 26.78,-4.18 4.2,4.88 8.4,-2.89 12.13,-0.65 1.16,0.69 2.16,1.06 2.53,2.35 0.38,1.31 -0.29,2.14 -0.89,3.34 -1.21,2.44 -6.91,2.25 -5.36,4.48 1.35,1.94 3.94,-1.58 6.04,-0.5 0.89,1.92 0.47,3.08 0.3,4.47 -0.91,2.32 -1.71,2.41 -2.5,2.96 -5.18,3.65 -8.53,10.22 -4.98,15.47 2.51,3.71 6.68,2.03 10.34,-1.49 2.88,5.68 7.72,9.74 14.26,9.53 2.14,-0.06 3.26,-1.06 5.4,-0.99 1.2,0.05 2.37,0.28 3.47,0.66 -0.41,0.78 -0.98,1.54 -1.58,2.29 -3.13,3.95 -9.1,-2.55 -12.9,0.77 -2.09,1.83 -4.38,3.61 -3.46,6.24 0.66,1.88 2.15,2.43 4,3.18 4.99,2.01 7.33,-8.71 12.21,-6.44 5.28,2.48 3.72,9.58 1.33,14.91 -1.36,3.04 -5,3.23 -5.53,6.52 -0.34,2.07 -0.36,3.62 0.89,5.3 2.48,3.31 6.83,-3.93 10.43,-1.9 3.08,1.74 1.19,6.13 4.16,8.07 1.2,0.78 2.53,1.16 3.88,1.19 l 8.8,-15.88 c -0.06,-5.86 1.71,-8.87 4.61,-10.89 -0.28,0.98 -0.23,1.97 0.42,2.96 1.09,1.66 2.67,1.84 4.64,2.11 3.74,0.53 4.7,-4.69 6.75,-7.52 -0.08,2.44 -0.55,5.06 -0.96,7.35 -1.81,8.24 -5.09,12.05 -3.98,18.96 1.52,9.41 6.7,-4.29 13.68,-15.9 -0.88,5.34 -4.37,6.4 -4.09,9.73 0.17,2.09 0.53,3.59 2.16,4.92 3.19,2.62 5.66,-5.47 9.64,-4.37 3.41,0.95 2.65,5.66 5.99,6.83 1.36,0.47 2.74,0.51 4.06,0.22 l 4.7,-17.54 c -1.03,-3.87 -0.93,-6.2 -0.24,-8.19 2.98,0.84 4.14,0.73 6.03,0.39 4.69,-0.85 4.5,-4.77 3.6,-9.55 l 13.86,9.71 c 3.38,-0.24 3.92,0.91 5.27,0.81 1.43,-0.11 2.21,-0.81 3.13,-1.91 5.06,-0.92 9.59,-3.68 8.78,-8.29 -0.66,-3.77 -3.23,-5.75 -6.84,-7.08 -2.18,-1.08 -4.62,-1.11 -5.75,-1.73 0.92,-0.33 2.04,-0.49 2.92,-1.2 3.78,-0.81 5.23,2.29 7.73,1.57 2.78,-0.78 3.75,-2.89 4.9,-5.53 1.99,-4.58 -3.48,-2.52 -9.74,-1.01 0.41,-4.42 -3.33,-9.6 -6.31,-14.96 2.35,-0.45 2.79,5.23 5.81,5.72 4.94,0.8 5.28,-11.88 9.28,-8.87 2.25,1.69 0.61,4.64 2.41,6.8 1.36,1.64 2.38,2.77 4.47,3.14 4.51,0.8 2.88,-12.11 6.74,-9.63 2.37,1.52 -0.41,6.95 2.4,6.81 2,-0.1 2.85,-1.79 3.59,-3.64 1.33,-3.39 -0.48,-6.99 -3.77,-8.54 -3.32,-1.55 -6.62,5.43 -9.03,2.65 -0.65,-0.75 -0.54,-1.58 -0.16,-2.44 3.18,-0.17 5.48,-0.23 7.94,-2.34 5.38,-4.6 -5.55,-10.99 -3.55,-17.76 0.85,-2.87 2.03,-5.4 3.62,-7.47 0.53,0.91 1.1,1.82 2.22,2.47 -0.76,1.73 -3.04,2.38 -3.63,4.56 -0.56,2.05 -0.9,3.53 0,5.46 1.93,4.15 11.56,-4.58 11.75,0 0.12,2.81 -5.93,3.65 -4.19,5.87 1.22,1.57 3.1,1.31 5.03,0.84 3.54,-0.84 5.45,-4.39 4.83,-7.97 -0.63,-3.62 -8.24,-2.32 -7.35,-5.88 0.77,-3.05 6.49,-0.33 7.35,-3.36 0.36,-1.29 -0.72,-2.2 -1.99,-3.03 1.09,-1.17 2.12,-2.51 3.02,-3.9 2.76,2.65 3.59,5.04 4.84,3.57 1.78,0.96 3.08,2.58 4.17,4.42 l 1.33,2.54 c 0.9,1.98 0.89,3.82 0.59,5.63 -2.06,-0.57 -4.12,-0.93 -5.74,0.53 -2.06,1.88 -4.31,3.69 -3.35,6.3 0.69,1.87 2.2,2.4 4.06,3.11 1.57,0.6 2.86,-0.03 4.04,-1.13 2.08,5.74 5.06,8.81 8.77,10.76 -1.62,1.85 -4.15,2.5 -4.55,5.22 -0.29,2.08 -0.28,3.63 1,5.28 2.52,3.27 6.75,-4.05 10.38,-2.08 3.12,1.69 1.31,6.11 4.31,7.99 1.21,0.77 2.55,1.12 3.9,1.14 l 8.52,-16.04 c 9.73,-3.91 10.46,-13.63 11.72,-22.05 1.25,-0.07 2.06,0.2 3.26,0.12 3.52,-0.23 0.71,-6.25 3.58,-8.32 1.92,-1.38 3.56,-2.3 5.83,-1.64 2.9,0.84 1.15,7.51 4.03,6.61 1.4,-0.44 1.2,-2.41 2.63,-2.68 1.21,-0.22 2.03,0.23 3,0.98 2.72,2.1 -1.24,5.27 -2.72,8.38 -1.2,2.51 -5.22,3.71 -3.74,6.07 0.72,1.14 1.65,1.41 2.94,1.83 4.1,1.36 6.82,-9.58 8.93,-8.2 0.41,1.5 0.72,3.04 0.93,4.6 l -0.59,2.21 c -2.05,8.01 -15.53,2.17 -18.83,9.76 -1.87,4.28 2.19,8.2 -0.58,11.95 -2.16,2.94 -8.3,0.74 -8.26,4.38 0.03,2.86 2.42,4.37 5.15,5.2 1.29,0.4 2.15,0.61 3.45,0.24 2.6,-0.72 1.12,-6.73 3.67,-5.86 1.56,0.52 0.78,3.4 2.42,3.43 1.46,0.02 1.98,-1.36 2.63,-2.67 1.39,-2.77 -4.07,-5.48 -1.91,-7.69 1.14,-1.17 2.34,-1.5 3.97,-1.36 1.76,0.16 2.49,1.41 2.7,3.08 0.05,3.1 -0.27,4.92 -0.5,6.46 -0.62,4 -5.74,4.77 -5.51,8.81 0.12,2.09 3.62,3.83 1.89,5.03 -1.11,0.77 -2.36,-1.04 -3.45,-0.24 -0.99,0.72 -0.93,1.77 -0.97,2.99 -0.14,4.25 7.02,5.98 10.38,3.37 1.76,-1.37 2.35,-2.9 2.55,-5.12 0.13,-1.47 -0.68,-2.26 -0.56,-3.72 0.24,-3.11 2.33,-6.1 5.01,-7.3 0.85,0.89 1.52,1.95 1.85,3.31 1.81,7.3 -8.31,11.23 -5.92,18.36 1.05,3.16 1.5,6.31 4.74,7.11 3.42,0.85 4.2,-5.18 7.7,-4.74 1.6,0.21 2.8,0.73 3.81,1.66 -1.27,0.79 -2.22,1.5 -1.23,2.45 0.86,0.85 1.76,0.17 2.75,-0.55 2.13,3.47 -4.11,6.67 -2.12,10.2 -0.57,5.36 -0.51,9.55 2.52,12.56 4.29,4.27 9.65,-1.68 12.54,-8.28 0.71,1.12 1.43,2.37 2.47,3.29 3.72,3.29 6.66,6.92 9.48,10.33 -1.48,0.02 -2.84,0.37 -3.8,1.61 -1.7,2.2 -3.61,4.38 -2.2,6.78 1,1.72 2.57,1.98 4.53,2.36 3.03,0.59 4.41,-2.79 6.02,-5.52 2.79,2.93 5.78,5.34 9.59,6.75 -0.11,1.52 -0.37,3.05 -0.7,4.5 -0.75,3.25 -4.3,4.12 -4.19,7.46 0.06,2.1 0.34,3.62 1.89,5.03 3.06,2.78 5.95,-5.16 9.87,-3.86 3.36,1.12 2.35,5.79 5.63,7.13 1.32,0.54 2.7,0.66 4.03,0.44 l 5.61,-17.28 c -0.96,-4.6 -0.46,-7.34 0.89,-9.56 l -0.62,3.17 c 1.05,3.21 0.06,4.02 0.48,5.31 0.46,1.35 1.33,1.94 2.62,2.57 3.47,1.7 2.97,-5.5 5.71,-8.05 1.21,1.78 2.14,3.64 4.41,3.35 1.37,-0.18 1.91,-1.1 2.16,-2.32 0.47,2.18 0.1,5.12 2.1,4.68 2.56,-0.57 -0.19,-6.6 2.41,-6.28 1.44,0.18 2.06,1.15 2.86,2.36 1.95,2.93 -3.52,5.8 -1.77,8.85 1.44,2.5 3.72,2.95 6.56,3.42 2.87,0.48 2.94,-0.96 1.91,-3.36 2.45,-2.51 0.09,-9.99 1.55,-15.1 2.23,0.71 4.13,-1.38 5.78,-1.96 -0.33,1.4 -0.55,2.82 0.48,3.43 -0.69,1.49 -2.4,2.83 -2.25,4.57 0.42,4.99 12.8,2.25 10.85,6.87 -1.09,2.59 -4.36,1.7 -6.02,3.97 -1.26,1.72 -2.1,2.98 -1.96,5.1 0.31,4.57 12.44,-0.13 10.97,4.21 -0.9,2.67 -6.84,1.29 -6.02,3.99 0.58,1.9 2.42,2.32 4.4,2.58 3.6,0.48 6.66,-2.15 7.36,-5.72 0.72,-3.59 -6.86,-5.11 -4.75,-8.11 0.75,-1.06 1.93,-0.91 3.2,-0.53 0.72,1.55 1.89,2.56 3.62,2.29 1.28,-0.2 1.44,-1.04 1.17,-2.17 1.16,-1.54 -0.48,-3.32 -1.65,-4.92 -0.25,-1.15 -0.22,-2.23 0.48,-3.05 1.81,-0.94 2.99,-0.55 4.25,0.04 2.74,1.27 1.03,8.24 3.68,6.81 3.88,-2.01 4.66,-5.95 5.14,-10.8 3.21,2 3.29,9.61 7.46,8.44 1.58,-0.45 2.97,-0.7 3.56,-2.23 0.58,-1.53 -2.38,-2.96 -1.15,-4.04 1.01,-0.89 2.28,-0.29 3.43,0.42 2.39,1.46 0.81,4.51 -0.05,7.17 -0.84,2.57 -3.22,3.08 -3.98,5.67 -0.37,1.29 -0.77,2.13 -0.42,3.43 0.68,2.47 3.34,3.91 5.78,3.12 1.39,-0.45 2.02,-1.27 2.77,-2.53 1.48,-2.53 -2.22,-4.95 -0.73,-7.48 2.26,-3.84 10.95,5.21 11.39,0.78 0.16,-1.63 -1.76,-2.52 -1.14,-4.04 0.98,-2.44 3.98,1.08 6.57,1.62 10.64,2.25 34.56,10.44 27.81,1.92 3.33,1.98 6.79,3.83 10.3,5.21 0.76,3.98 3.45,7.7 7.14,10.25 2.36,1.63 4.45,4.17 6.86,2.63 1.14,-0.72 1.48,-1.58 1.99,-2.83 1.07,-2.65 -1.86,-4.62 -0.8,-7.28 2.33,1.83 3.51,11.37 7.36,10.69 3.1,-0.54 2.73,-4.79 5.77,-5.65 1.99,-0.56 3.37,-0.5 5.3,0.24 1.93,0.74 2.05,3.07 4.1,3.37 3.77,0.56 -3.77,-6.44 -1.69,-9.65 2.39,-3.68 10.78,3.29 11.21,-1.08 0.11,-1.21 -0.55,-1.99 -1.3,-2.75 z m 250.11,-519.53 c 0.91,-0.99 1.63,-2.27 2.37,-3.48 -3.23,-0.7 -8.18,-1.71 -11.89,-3.46 1.5,-3.49 3.75,-4.15 6.48,-4.41 1.31,-0.12 2.41,-0.58 3.35,0.34 0.97,0.95 -0.47,2.38 0.35,3.46 0.98,1.31 3.02,-0.23 4.09,1.02 0.65,0.77 1.12,1.46 0.86,2.44 -0.29,1.13 -1.71,0.82 -2.45,1.72 -1.85,2.28 -1.37,5.26 0.51,7.51 0.79,0.95 1.88,1.03 3.01,0.98 -0.84,1.11 -1.2,2.43 -0.69,3.84 0.51,1.43 2.29,1.5 2.5,3.02 0.25,1.87 -1.58,2.46 -3.65,2.72 -1.38,-2.11 -2.62,-5.13 -3.22,-7.23 -0.48,-1.68 -0.03,-2.78 -0.52,-4.46 -0.4,-1.35 -0.51,-2.98 -1.1,-4.01 z m -860.5,266.07 c -1.19,-1.48 -2.73,-2.52 -1.54,-1.42 l 1.54,1.42"/><path style="fill:#5e5347;fill-opacity:1;fill-rule:evenodd;stroke:none" id="path88" d="m 7494.72,3981.8 c -1.46,-0.09 -3.1,0.86 -3.72,-0.47 -0.46,-0.95 -0.22,-1.94 0.56,-2.64 0.71,-0.65 1.48,-0.63 2.43,-0.44 1.34,0.26 1.22,2.38 2.58,2.36 1.73,-0.04 0.46,-3.4 2.11,-3.92 1.16,-0.36 1.94,0.17 3.05,0.65 1.41,0.6 1.72,1.76 3.12,2.36 1.15,0.5 1.98,1.12 3.15,0.67 1.82,-0.69 -0.76,-4.13 1.04,-4.88 2.09,-0.87 3.84,2.15 3.75,4.41 -0.13,2.72 -3.74,2.09 -5.91,3.74 -1.26,0.97 -1.52,2.63 -3.11,2.64 -2.15,0.02 -0.97,-3.66 -2.82,-4.75 -2.1,-1.23 -3.8,0.43 -6.23,0.27 z m -117.04,-116.32 c -1.23,-1.96 -3.27,-4.09 -1.03,-4.69 1.14,-0.3 1.92,0.06 2.95,0.63 1.41,0.79 2.23,1.71 2.49,3.3 0.21,1.24 0.13,2.18 -0.67,3.15 -1.53,1.84 -2.47,-0.36 -3.74,-2.39 z m 22.14,21.19 c -1.93,-0.41 -4.2,-0.25 -4.64,-2.16 -0.47,-1.8 2.05,-2.65 3.83,-3.01 1.85,0.82 2.5,2.23 4.54,2.66 1.62,0.35 2.46,-1.6 4.09,-1.25 1.83,0.39 4.27,0.91 3.88,2.74 -0.41,1.93 -1.8,3.98 -3.73,3.56 -1.83,-0.38 -1.77,-2.71 -3.59,-3.1 -1.63,-0.34 -2.75,0.91 -4.38,0.56 z m -12.01,8.47 c -0.64,0.95 0.07,2.18 -0.91,2.78 -0.84,0.52 -1.62,0.28 -2.52,-0.11 -1.48,-0.64 -0.61,-2.99 -2.13,-3.54 -1.24,-0.45 -2.17,1.32 -3.33,0.68 -1.13,-0.62 -1.01,-1.78 -1.27,-3.04 -0.54,-2.62 -0.56,-4.92 1.43,-6.71 2.74,-2.47 8.85,-1.7 9.26,1.97 0.13,1.21 -1.01,1.88 -0.65,3.05 0.64,2.09 3.3,1.19 5.49,1.17 1.71,-0.02 2.61,-0.76 4.32,-0.79 4.39,-0.07 13.2,1.23 10.31,4.53 -1.51,1.71 -4.14,0.1 -5.51,1.92 -0.77,1.01 0.09,2.58 -1.09,3.06 -0.89,0.38 -1.54,-0.13 -2.44,-0.52 -2.57,-1.11 -1.21,-5.02 -3.8,-6.12 -2.63,-1.12 -5.56,-0.72 -7.16,1.67 z m 59.63,66.83 c 1.2,-1.45 3.26,-0.53 4.37,-2.05 0.82,-1.12 0.28,-2.2 0.94,-3.42 2.21,-4.11 7.24,7.66 4.21,11.21 -1.45,1.7 -3.76,4.12 -5.19,2.41 -1.07,-1.28 1.66,-3.07 0.48,-4.26 -0.53,-0.53 -1.01,-0.66 -1.75,-0.79 -1.79,-0.33 -2.59,3 -4.16,2.09 -1.79,-1.03 -0.23,-3.6 1.1,-5.19 z m 92.95,66.98 1.04,-166.42 c -83.27,-39.68 -165.82,-80.1 -248.27,-120.46 -0.52,3.77 3.92,5.2 3.23,8.58 -0.81,3.96 -8.94,2.53 -8.09,6.46 0.44,2.01 1.59,2.99 3.33,4.07 2.78,1.71 5.25,-0.85 8.37,0.1 5.45,1.65 11.7,5.05 10.13,10.54 -1.45,5.05 -10.86,-0.1 -12.57,4.88 -0.63,1.84 -1.19,3.29 -0.22,4.98 1.35,2.36 4.12,1.82 6.82,1.45 4.88,-0.67 3.92,-9.24 8.83,-9.03 2.64,0.12 5.19,0.49 6.08,2.97 1.18,3.26 -6.22,2.74 -6.34,6.2 -0.06,1.43 0.14,2.35 0.92,3.55 2.2,3.39 8.03,-4.51 10.31,-1.16 2.5,3.68 -11.96,7.29 -7.67,8.43 3.1,0.82 4.3,-2.89 7.44,-3.45 4.65,-0.83 8.69,-0.99 11.84,2.52 2.78,3.09 3.47,6.6 1.97,10.48 -0.63,1.61 -2.06,2 -2.46,3.67 -0.31,1.28 0.61,2.16 0.12,3.38 -1.2,2.97 -5.71,0.5 -8.03,-1.71 -2.91,-2.77 2.41,-12.46 -0.96,-10.27 -1.19,0.79 -0.93,2.41 -2.28,2.88 -1.92,0.65 -2.6,-1.88 -4.48,-2.63 -7.31,-2.91 -21.55,-2.53 -19.52,5.07 1.59,5.99 8.59,7.73 14.6,6.25 1.51,-0.37 2.13,-1.63 3.68,-1.53 1.31,0.09 2.33,0.38 3.04,1.49 0.66,1.05 0.45,1.97 0.16,3.18 -0.55,2.24 -4.8,1.89 -4.23,4.13 0.65,2.58 4.15,-1.75 6.73,-1.09 1.28,0.34 2.32,0.39 3.03,1.49 0.73,1.11 0.36,2.09 0.13,3.38 -0.76,4.18 -9.18,2.3 -8.73,6.53 0.17,1.59 0.55,2.63 1.72,3.72 2.16,2.02 4.63,-0.31 7.57,-0.06 4.06,0.33 8.95,-1.71 10.23,2.17 0.41,1.25 0.39,2.09 0.12,3.38 -0.95,4.47 -6.83,6.13 -10.95,4.17 -1.29,-0.61 -1.57,-1.69 -2.87,-2.29 -1.98,-0.91 -3.56,-1.17 -5.59,-0.34 -3.85,1.56 -5.88,8.46 -2.21,10.42 1.05,0.57 1.91,1.13 3.01,0.64 1.2,-0.53 0.29,-2.47 1.48,-3.03 1.85,-0.88 1.61,2.93 3.33,4.06 3.3,2.17 6.45,-1.79 10.14,-0.36 3.48,1.34 8.57,3.13 7,6.52 -0.68,1.44 -1.54,2.3 -3.09,2.69 -2.93,0.75 -2.55,-5.19 -5.57,-5.37 -1.43,-0.09 -2.85,-0.33 -3.55,0.92 -0.77,1.4 2.04,2.15 1.73,3.72 -0.52,2.59 -4.87,-1.6 -6.76,0.24 -0.94,0.92 -1.19,1.76 -1.49,3.04 -0.63,2.72 -0.51,5.48 1.89,6.9 3.07,1.82 4.2,-4.45 7.74,-4.86 4.53,-0.5 5.87,4.85 10.39,5.36 8.04,0.91 9.68,-13.34 17.47,-11.17 2.24,0.63 4.03,0.83 5.28,2.8 2.46,3.9 -10.05,-0.15 -10.99,4.37 -0.27,1.29 -0.5,2.21 0.12,3.38 1.27,2.4 4.25,-0.41 6.96,-0.2 3.35,0.27 7.98,-1.54 8.43,1.79 0.15,1.19 0.14,2.1 -0.65,3.01 -0.93,1.09 -2.5,-0.05 -3.55,0.92 -2.17,2 4.32,3.78 3.62,6.65 -0.55,2.24 -2.13,3.18 -4.23,4.13 -3.15,1.41 -6.88,-3.91 -8.8,-1.04 -0.8,1.2 -0.86,2.18 -0.76,3.61 0.35,5.03 14.86,-1.83 12.63,2.69 -0.76,1.55 -1.64,2.28 -3.18,3.1 -2.52,1.36 -6.65,-2.67 -7.35,0.11 -0.35,1.39 0.16,2.35 0.92,3.55 1.36,2.15 4.78,0.46 5.92,2.73 1.49,2.98 -3.72,4.19 -4.11,7.51 -0.24,2.01 -0.53,3.46 0.58,5.16 2.27,3.48 6.76,-3.83 10.47,-1.97 1.29,0.64 1.62,1.61 2.88,2.29 5.46,2.94 9.04,-8.63 14.71,-6.1 1.96,0.88 2.32,2.62 4.3,3.43 4.34,1.78 7.21,-4.88 11.58,-3.2 1.98,0.76 3.24,1.43 4.35,3.23 3,4.85 -16.12,1.61 -13.1,6.44 1.72,2.77 8.77,0.24 7.68,3.31 -0.54,1.51 -1.72,1.89 -3.1,2.7 -4.97,2.91 -15.43,-8.75 -14.44,-3.07 0.28,1.57 1.5,2.14 1.73,3.72 0.81,5.53 -10.83,-4.04 -14.33,0.31 -4.55,5.67 17.39,3.61 15.37,10.6 -0.38,1.27 -0.68,2 -1.49,3.04 -1.55,1.96 -4.52,0.77 -5.67,2.99 -1.97,3.81 8.61,2.57 8.6,6.86 0,3.73 -9.91,5.45 -6.51,7 1.84,0.84 3.17,-1 5.15,-0.58 1.98,0.42 3.14,1.1 4.47,2.63 2.03,2.31 -0.53,5.6 1.72,7.7 3.62,3.37 12.7,-9.7 11.72,-4.85 -0.55,2.74 -4,2.8 -4.53,5.54 -0.25,1.29 -0.42,2.18 0.12,3.38 1.15,2.55 4.23,1.57 7.03,1.49 7.28,-0.2 14.04,-4.54 14.45,-11.81 0.21,-3.72 -3.62,-5.35 -3.1,-9.05 0.86,-6.16 8.67,-12.76 13.37,-8.68 2.03,1.76 0.57,4.86 2.86,6.26 1.36,0.84 2.47,1.26 4.02,0.86 1.54,-0.41 1.5,-2.47 3.09,-2.7 2.12,-0.31 2.99,1.73 4.29,3.43 5.31,6.9 -28.95,7.63 -20.37,9.09 1.92,0.32 3.13,-0.37 4.98,0.22 3.91,1.23 9.15,4.87 6.66,8.12 -1.84,2.41 -4.86,-0.1 -7.73,0.88 -10.07,3.39 13.89,9.41 23.81,13.23 2.4,0.93 6.74,-0.36 6.25,2.17 -0.3,1.56 -2.35,1.27 -3.09,2.69 -2,3.87 9.94,1.08 9.75,5.43 -0.13,2.86 -4.45,2.88 -4.58,5.74 -0.06,1.43 0.03,2.44 0.92,3.55 1.58,1.94 4.52,2.17 6.39,0.52 0.99,-0.88 1.11,-1.78 1.49,-3.05 0.76,-2.52 -0.92,-4.2 -0.24,-6.75 0.7,-2.64 1.04,-5.98 3.77,-5.91 1.32,0.04 2.68,0.22 3.04,1.48 0.43,1.55 -2.76,1.14 -3.09,2.7 -0.34,1.57 0.66,2.52 1.72,3.73 3.23,3.65 8.19,-5.12 12.26,-2.43 1.71,1.13 3.28,2.01 3.33,4.06 0.07,2.95 -5.81,0.79 -6.65,3.62 -0.36,1.26 -0.5,2.22 0.13,3.38 1.41,2.59 3.72,-4.03 6.64,-3.62 1.93,0.28 3.5,0.8 4.27,2.59 1.24,2.89 -6.18,2.29 -5.97,5.43 0.19,3.08 6.22,1.63 6.33,4.71 0.14,3.58 -6.88,0.79 -8.21,4.12 -1.32,3.3 -0.21,7.07 2.99,8.61 1.76,0.83 3.5,1.47 4.99,0.21 2.1,-1.77 -3.5,-3.8 -2.82,-6.46 1.11,-4.34 8.54,5.96 11.23,2.38 1.25,-1.66 1.23,-3.14 1.11,-5.21 -0.15,-2.75 -3.31,-3.76 -2.82,-6.47 0.86,-4.82 9.54,4.01 12.54,0.15 1.98,-2.54 -2.2,-7.4 0.91,-8.19 2.86,-0.74 2.52,4.53 5.37,5.33 3.17,0.9 6.66,-5.45 8.07,-2.48 0.56,1.19 0.2,2.06 0.12,3.38 -0.53,8.55 -22.81,12.69 -14.95,16.11 2.57,1.13 4.68,1.98 7.19,0.69 3.06,-1.57 0.1,-6.83 3.27,-8.19 1.29,-0.56 2.32,-1.03 3.59,-0.41 2.3,1.11 -3.16,4.59 -1.37,6.41 2.07,2.1 3.84,-4.52 6.64,-3.62 1.36,0.45 1.94,1.2 2.87,2.29 2.77,3.26 -3.21,10.39 1.04,10.92"/><path style="fill:#5e5347;fill-opacity:1;fill-rule:nonzero;stroke:none" id="path90" d="m 8153.01,4459.43 v -170.68 h 105.7 v 170.68 z m 345.28,244.42 c 1.21,11.81 11.2,21.03 23.33,21.03 12.14,0 22.12,-9.22 23.34,-21.03 l 586.81,-175.99 -0.06,-8.44 h -94.42 v -277.19 l -438.13,-66.21 h -593.2 v 343.4 h -94.39 l -0.1,8.44 586.82,175.99"/><path style="fill:#5e5347;fill-opacity:1;fill-rule:nonzero;stroke:none" id="path92" d="m 8180.53,4677.46 v -108.67 h 78.18 v 108.67 h -78.18"/><path style="fill:#5e5347;fill-opacity:1;fill-rule:evenodd;stroke:none" id="path94" d="m 3867.4,3351.53 c 539.44,-125.99 855.4,-165.77 1409.24,-177.43 1600.59,-33.71 2340.25,1104.33 3940.49,1151.2 859.97,25.19 1358.37,-28.17 2193.57,-234.87 -842.2,160.06 -1337.7,192.39 -2193.57,143.14 C 7616.84,4141.5 6874.96,2944.18 5276.64,3065.23 c -559.25,42.36 -877.8,107.07 -1409.24,286.3"/><text style="font-style:normal;font-weight:400;font-size:1100px;line-height:1.25;fill-opacity:1;stroke:none;stroke-width:7.5" id="text130" x="4695.512" y="-4248.352" transform="scale(1,-1)" xml:space="preserve"><tspan id="tspan128" x="4995.512" y="-4148.352" style="font-size:1100px;stroke-width:7.5">Colle</tspan></text><text style="font-style:normal;font-weight:400;font-size:1100px;line-height:1.25;fill-opacity:1;stroke:none;stroke-width:7.5" id="text130-5" x="8348.511" y="-3075.56" transform="scale(1,-1)" xml:space="preserve"><tspan id="tspan128-0" x="8348.511" y="-3075.56" style="font-size:1100px;stroke-width:7.5">DiVino</tspan></text></g></g></svg>