<svg xmlns="http://www.w3.org/2000/svg" id="lacolonica-logo" height="{{ site.logo_height }}" version="1.1" viewBox="0 0 1587.4 1122.52" xml:space="preserve"><g id="g70" transform="matrix(1.3333333,0,0,-1.3333333,0,1122.52)"><g id="g72" transform="scale(0.13) translate(-500, -1000)"><path style="fill:none;fill-opacity:1;fill-rule:nonzero;stroke:none" id="path74" d="M 0,8418.89 H 11905.5 V 0 H 0 v 8418.89 0"/><path style="fill:#4c4237;fill-opacity:1;fill-rule:evenodd;stroke:none" id="path76" d="m 9248.69,2455.8 c -522.83,-96.3 -872.15,-194.88 -1439.54,-241.5 -1276.4,-104.86 -2036.99,-9.89 -3264.47,355.48 -918.66,273.45 -1293.52,859.15 -2239.76,1011.86 -728.03,117.5 -1160.01,-25.05 -1889.221,-80.09 729.211,55.04 1144.301,239.02 1871.191,151.34 960.61,-115.85 1366.85,-671.48 2297.7,-935.59 1239.08,-351.55 1988.25,-484 3274.84,-426.44 545.04,24.38 866.43,68.64 1389.26,164.94"/><path style="fill:#4c4237;fill-opacity:1;fill-rule:nonzero;stroke:none" id="path78" d="m 2433.92,3853.4 v -15.1 l -4.52,-2.44 14.43,-26.55 c -36.27,-11.91 -38.4,19.61 -35.65,44.09 z m 263.19,341.4 v -29.43 c -5.19,-8.45 -9.58,-17.39 -15.29,-25.51 h -10.64 v 24.67 c 6.7,8.82 5.66,20.55 10.26,30.27 z m -48.96,116.59 c -9.92,-21.1 15.76,-39.54 -14.71,-54.95 l -10.99,5.41 v 29.54 c 5.11,5.6 9.32,12.25 9.91,20 z m -405.07,44.46 c 9.51,-22.08 11.93,-45.74 9.85,-69.54 h -20.24 v 64.37 z m 28.67,828.53 c 27.37,-16.8 48.86,-25.72 24.88,-59.79 h -15.52 c 0.11,26.43 1.34,34.93 -9.36,59.79 z m 88.66,580.03 c 1.06,-21.32 20.29,-25.78 20.24,-41.92 -6.34,-7.42 -7.58,-18.97 -0.41,-26.31 l -20.37,-1.36 -10.19,5.23 c -0.66,21.53 -3.09,42.84 -0.68,64.36 z m 209.65,526.52 c 0.31,-9.05 0.39,-19.48 5.59,-27.31 l -4.88,-4.88 4.88,-9.74 -5.84,-12.82 h -10.49 v 49.88 z m -106.89,550.88 -7.89,-4.35 -2.22,4.4 h -10.66 l -9.65,-9.97 v -62.8 l -4.39,4.75 c -7.79,-1.8 -12.81,-8.2 -17.11,-14.45 l -2.86,9.82 -14.84,-5.4 c -0.34,-16.48 -0.66,-33.38 -5.59,-49.26 l 4.88,-19.5 -6.3,-18.74 -7.61,4.62 4.16,-15.13 -4.88,-12.18 4.88,-14.62 c -3.82,-7.18 -10.11,-15.76 -18.89,-16.67 0.81,-11.08 13.62,-17.58 9.39,-29.5 12.52,-4.08 7.04,-7.03 13.81,-11.95 v -6.83 l -12.69,9.91 v -19.62 l -4.52,4.47 -10.9,-4.87 v -10.44 c 16.85,-10.46 8.23,-39.79 28.93,-46.33 v -5.34 l -9.65,-1.27 v -13.3 l 4.52,-4.27 v -44.48 l -4.7,-2.12 c 7.89,-14 2.05,-24.4 -0.18,-38.71 -2.15,-13.85 14.5,-31.56 14.63,-46.31 0.09,-10.42 -4.7,-20.25 -5.58,-30.58 -6.06,2.64 -11.9,5.84 -17.3,9.67 l -6.32,-11.48 c 13.28,-19.41 9.74,-48.27 9.7,-70.6 l 4.35,-3.69 v -6.95 c -5.06,2.31 -6.91,9.23 -7.56,14.25 l -16.29,-22.5 4.87,-14.62 c -18.35,-33.23 -15.45,-32.07 -14.53,-70.24 l 14.57,-21.6 c -2.45,-10.02 -16.24,-7.52 -23.75,-7.65 0.3,-7.97 2.18,-17.65 -9.91,-14.33 v -57.42 l -5.02,-1.76 c 3.87,-9.58 15.28,-26.88 14.43,-36.78 l -3.31,-1.78 -6.42,4.08 c 6.5,-11.67 3.46,-21.85 -0.18,-33.84 l 9.75,-29.25 -9.75,-41.43 c 9.54,-21.92 35.11,-66.74 33.49,-89.33 l -7.62,9.92 c -1.43,-8.57 -6.16,-16.11 -7.87,-24.61 H 2338 l -12.4,73.33 c -14.97,-8.54 -12.5,-31.93 -20.47,-45.44 v -41.49 l -4.92,-4.26 c -2.26,-15.83 -2.99,-56.25 9.77,-67.34 -18.91,-27.74 -14.79,-36.42 -4.89,-66.72 -10.01,-26.61 4.63,-34.6 5.59,-59.04 h 19.18 c 0.11,-19.26 4.05,-60.96 -24.11,-62.38 0.46,-9.27 8.69,-76.09 -0.65,-89.2 9.26,-17.01 19.2,-33.63 29.24,-50.2 -2.41,-10.07 -4.77,-20.23 -5.62,-30.58 -8.07,9.22 -16.17,18.61 -26.34,25.61 l 4.96,2.82 c -5.52,9.61 -5.2,14.47 -0.18,24.16 -10.18,-0.71 -11.32,-14.44 -25.31,-8.98 -2.32,-19.19 -1.83,-38.94 -1.91,-58.24 l -7.48,9.69 c -1.09,-8.73 -11.17,-32.36 -11.25,-35.16 -0.97,-37.48 45.58,-31.41 12.32,-101.16 l -0.84,14.02 h -10.51 l -5.68,-15.59 4.71,-6.96 v -34.73 l 4.06,-3.71 v -7.36 l -8.16,4.86 v -15.73 l 4.1,-4.27 c -0.49,-24.3 -22.3,-16.85 0,-53.62 l -4.87,-12.19 c 2.27,-5.99 9.87,-29.4 0.3,-31.73 l 29.38,-64.51 c 1.44,6.86 -3.38,20.03 3.41,24.56 1.35,-9.54 3.67,-18.9 5.91,-28.26 l -4.69,-5.16 c 6.51,-11.66 4.03,-19.59 -0.19,-31.4 l 4.9,-3.94 c -5.89,-9.03 -3.48,-21.38 -10.33,-29.85 l 9.92,5.79 -9.36,-32.94 c 3.34,-6.32 6.61,-16.45 3.45,-23.37 -1.47,10.51 -6.94,19.92 -11.92,29.1 l -7.32,-4.87 -7.08,14.8 c -0.57,-11.39 -0.36,-22.87 -2.44,-34.12 l -8.46,4.34 v -42.55 l -5.05,-2.11 4.69,-11.91 -4.87,-12.18 9.75,-24.38 c -3.3,-8.37 -9.85,-16.71 -18.86,-19.19 v -49.6 h 10.79 l 2.84,13.97 c 0.96,-21.75 -1.43,-19.3 -9.04,-37.87 l 8.81,-1.9 v -11.8 l -9.24,9.95 v -49.28 l -3.08,4.35 h -11.36 c 3.58,-6.51 8.82,-19.27 0.26,-24.32 v -68.4 l 9.38,-9.66 c -10.93,-19.13 -10.92,-53.99 0,-73.12 l -9.75,-19.5 c 5.29,-16.64 14.25,-30.54 4.35,-47.59 -5.04,7.06 -10.39,14.22 -17.48,19.37 -1.15,-7.1 -3.44,-13.98 -6.37,-20.53 2.11,-7.72 9.77,-23.75 0.18,-29.19 -0.08,-21.88 9.15,-41.98 10.02,-63.64 20.37,-7.46 22.89,-33.87 32.83,-50.18 v -7.39 h -5.35 c -1.63,7.6 -6.5,14.11 -11.43,19.92 -1.71,-8.64 -4.16,-17.11 -6.75,-25.52 4.11,-10.56 8.76,-21.03 15.18,-30.41 l 1.93,14.56 c 6.72,-7.31 10.09,-18.25 7.57,-27.99 30.24,-9.12 17.7,-47.17 8.16,-67.35 h -5.11 l -7.48,14.72 c -1.86,-16.38 7.04,-32.4 3.36,-48.69 -22.78,12.41 -17.64,47.47 -26.43,68.34 l -6.22,-5.56 4.16,-10.25 -9.55,-10.01 c 4.97,-18.09 8.55,-36.63 15.47,-54.15 l 7.77,4.63 14.54,-85.73 c -4.33,4.71 -8.89,11.86 -6.63,18.53 l -6.8,-3.68 c -7.96,12.54 -19.06,22.61 -28.42,34.04 v -10.67 c 14.79,-15.94 29.62,-33.28 34.83,-54.95 l 10.71,9.66 c 30.23,-41.36 40.03,-97.99 86.25,-126.47 l -3.79,7.95 5.06,6.38 c 3.26,-9.66 12.24,-15.65 17.06,-24.38 l -9.56,-8.24 8.34,-1.51 4.59,5.07 6.74,-6.34 -4.66,-7.61 c 8.93,-1.98 22.13,-4.4 24.68,-14.92 l 6.57,4.31 c 22.89,-18.93 32.93,-17.66 54.86,-37.69 l 5.95,-13.4 1.49,-16.67 -10.23,-98.34 c -3.82,-4.76 -0.25,-8.12 8.73,-25.77 l -4.69,-5.16 9.93,-11.96 -4.87,-7.32 15.83,-5.87 6.96,4.83 h 36.35 c 10.01,10.32 5.08,25.94 1.79,38 6.33,6.38 -4.15,117.21 4.51,134.25 l -4.89,8.85 25.61,16.74 7.82,-4.16 -4.71,7.5 c 12.11,1.81 23.59,6.66 34.31,12.44 l -4.52,5.92 c 15.86,9.35 28.86,23.28 38.96,38.53 -0.04,29.16 -4.9,42.95 21.71,61.66 0.83,-21.81 -10.46,-41.7 -13.24,-62.99 16.77,14.14 15.46,39.34 30.49,54.73 v 37.81 c 15.67,24.73 63.24,91.44 48.48,120.41 l 9.4,1.87 c 0.84,12.74 6.59,27.28 10.46,39.5 -6.48,16.71 -6.15,37.92 -4.74,55.6 l 4.38,-2.47 c 0.12,20.98 5.16,43.13 -10.54,60.15 v -20.09 h -8.99 v 33.35 l -9.36,14.84 9.75,19.5 c -2.59,7.03 -9.48,19.16 -0.18,24.31 v 72.28 c 0,25.42 -19.12,25.12 -15.06,64.68 l -8.2,-4.24 c -2.36,13.36 -1.12,27.05 -1.19,40.53 6.25,4.31 12.64,9.33 14.44,17.11 l -8.38,-4.01 c 13.69,53.16 -18.41,47.5 23.43,112.55 -4.01,4.66 -7.22,10 -9.74,15.6 l 4.15,6.81 v 39.94 h -10.9 c -0.56,-6.97 -4.97,-12.6 -6.86,-19.18 l -7.61,4.63 c -0.57,-8.05 -0.23,-16.23 -2.14,-24.12 l -7.42,4.79 -7.82,-14.12 c -2.4,16.86 1.88,44.98 14.14,57.6 v 33.23 l 4.61,0.11 c 1.16,14.29 -12.83,65.22 9.43,68.29 0.72,8.48 3.04,16.73 5.55,24.84 l -19.5,48.75 14.63,48.75 c -2.53,7.24 -5.42,14.63 -10.32,20.65 l -3.54,-9.81 c -2.54,9.7 0.72,21.46 4.1,30.59 l -4.87,9.75 4.87,9.75 -4.87,9.75 4.87,4.88 -4.87,9.75 14.63,51.19 -14.63,31.68 c 5.73,13.02 11.48,26.15 19.49,37.96 l -4.86,13.23 c 8.42,18.04 2.35,37.66 -5.18,54.83 -2.76,-9.11 7,-24.27 -11.41,-19.99 -1.29,-7.09 -0.44,-16.95 4.4,-22.65 -4.41,-7.98 -9.37,-16.38 -10.26,-25.65 -25.79,39.1 -13.79,29.36 -2.39,72.61 h -8.53 c -0.69,6.25 -2.81,14.96 3.93,18.78 2.79,16.57 0.39,42.17 -9.57,56.13 l 4.14,6.81 v 25.45 l -9.2,1.58 5.06,2.73 c 4.36,22.65 -0.43,56.9 -14.62,75.56 l 4.88,14.63 -4.88,17.06 4.69,5.16 c -3.48,6 -4.9,12.93 -5.41,19.79 h -9.3 c -0.09,15.57 -6.69,37.68 9.11,48.11 v 15.7 c -8.23,-4.12 -14.78,-11.08 -18.83,-19.3 0.35,13.55 2.08,39.34 14.55,47.56 l -4.56,9.73 c 6.96,14.29 15.09,28 14.17,44.5 -45.84,2.93 -18.52,115.36 -9.71,140.89 l -13.67,-3.92 -0.54,3.78 4.35,4.37 v 41.92 c 5.24,3.72 10.31,7.75 14.66,12.49 v 24.68 h -14.39 c -0.07,30 13.98,66.13 0.25,94.47 l 14.32,31.72 -4.77,4.85 v 44 c -5.6,3.16 -10.33,7.62 -16.01,10.66 v -96.4 l -4.51,-0.92 -10.6,4.17 v -8.43 l 4.57,-4.27 v -15.09 l -3.72,-0.76 -13.4,14.33 v 32.6 l 0.12,2.58 4.04,-2.48 -4.54,5.38 v 44.43 l -4.5,4.32 c 15.02,11.43 24.74,19.74 23.53,40.09 -6.65,-4.14 -10.08,-12.18 -11.98,-19.45 l -6.67,11.05 c 5.53,8.14 11.44,16.37 19.37,22.37 -5.74,20.9 -6.41,46.62 9.78,63.23 v 33.23 l -4.78,3.05 c -0.02,18.9 5.64,37.67 18.98,51.47 v 14.98 l -14.23,1.35 5,12.63 -4.87,17.07 9.5,12.33 -5.03,15.67 -3.32,-14.94 h -4.81 c -5.01,40.84 -11.07,35.22 12.9,72.53 v 19.83 l -7.96,-4.63 -2.05,14.34 c -14.06,-0.3 -21.38,12.49 -24.52,24.48 l -7.33,-4.55 h -5.31 l -5.95,16.06 4.88,9.75 -4.88,4.88 c 5.16,9.32 10.18,18.72 14.6,28.42 l -4.85,13.01 4.88,14.63 -9.75,21.94 c 11.55,34.99 13.35,36.65 -9.75,65.81 13.91,33.41 -18.11,46.39 -20.26,78.55 l -9.02,1.06 4.91,10.58 c -5.09,16.39 -20.56,39.43 -0.15,51.59 -4.47,12.74 -4.88,26.33 -6.24,39.63 l -11.96,-9.93 -6.39,6.52 5.23,2.37 v 52.72 l 4.88,8.23 c -0.01,13.44 -14.64,18.57 -21.56,28 -18.85,-15.69 -25.25,-41.13 -31.1,-63.85 l -6.23,6.7 -4.58,62.04 -4.39,-9.77 c 1.75,20.2 5.36,42.54 4.13,62.69"/><path style="fill:#4c4237;fill-opacity:1;fill-rule:nonzero;stroke:none" id="path80" d="m 3274.89,3541.14 c 2.63,-13.45 13.29,-22.93 20.22,-34.17 l -10.32,-1.54 c -7.34,4.74 -14.81,9.51 -20.84,15.91 v 19.8 z m 204.77,29.76 v -20.41 c -7.7,-6.37 -12.66,-15.17 -18.68,-22.99 l 4.17,-6.84 -5.6,4.31 c -8.1,-5.81 -19.29,-12.18 -18.67,-23.7 -14.06,-0.94 -15.48,-5.95 -30.71,-0.43 v 8.14 l 4.51,4.88 -4.12,4.26 v 8.95 l 8.21,-9.69 c 3.87,9.34 14.03,13.05 21.03,19.51 l 3.1,-4.98 c 11.3,13.82 21.9,28.7 36.76,38.99 z m 40.9,229.36 c 3.76,-11.8 3.76,-24.76 0,-36.56 z m -368.23,345.58 c 14.06,-6.48 15.08,-17.15 15.14,-31.11 -6.59,9.52 -12.04,19.92 -15.14,31.11 z m 141.51,2077.07 -10.43,-5.36 c 2.84,-16.32 2.66,-44.19 -10.11,-56.57 l 5.21,-8.83 v -36.69 h -6.95 l -6.5,10 -1.51,-9.57 -13.6,19.47 c -0.62,-6.75 -1.62,-18.02 3.85,-23.13 l -4.51,-6.8 v -57.48 l -5.24,-8.84 c 3.07,-12.33 7.83,-26.26 0,-37.88 3.99,-4.74 7.23,-10.09 9.75,-15.75 -6.28,-14.39 -19.5,-38.27 -19.5,-53.62 0,-35.85 33.83,-65.63 -4.74,-95.18 0.02,-29.53 9.69,-58.13 9.62,-87.63 -0.04,-14.4 -4.75,-28.28 -4.88,-42.66 l -4.69,-6.38 c 2.76,-5.46 10.11,-26.63 0.11,-28.6 v -32.66 l -5.08,-4.27 v -78.32 l -3.74,-0.89 -14.69,9.38 c 2.14,-8.28 18.3,-44.84 18.34,-47.17 0.43,-21.48 -19.5,-37.07 -19.5,-58.5 0,-24.08 16.76,-45.25 13.7,-69.65 l -2.22,4.26 h -10.92 l 4.35,-6.9 -4.91,-10.58 9.75,-17.06 -4.87,-12.19 5.06,-9.47 -9.34,-2.34 c 1.8,-18.66 -0.3,-40.91 -15.11,-54.21 V 5239 l 5.32,-4.27 v -11.37 l -4.5,5.09 -10.68,-13.22 9.75,-31.68 c -20.69,-44.53 5.66,-44.06 -5.43,-81.73 -9.16,11.43 -15.38,25.64 -27.94,33.95 v -15.16 c 9.54,-15.2 38.86,-61.29 37.67,-77.51 -6.69,5.87 -12.83,12.42 -17.9,19.76 0.09,-20.74 18.19,-34.32 18.47,-52.38 0.16,-10.09 -4.53,-19.46 -4.69,-29.53 l -3.84,-0.93 -10.47,3.9 c 3.7,-15.81 8.73,-31.26 14.13,-46.56 l -4.88,-9.75 4.88,-14.63 -6.3,-16.3 -7.97,4.62 v -52.61 l -5.23,-8.83 c 4.34,-5.91 5.62,-13.96 4.3,-21.08 l -8.42,9.93 v -8.96 l 4.12,-4.27 -4.8,-4.87 v -29.63 l -9.47,-1.55 c -1.69,-13.04 7.26,-25.36 4.38,-38.3 -6.77,6.7 -6.72,17.05 -12.61,24.32 -7.01,-35.59 8.65,-70.74 3.08,-106.32 l -9.47,-1.58 v -8.43 l 4.63,-4.26 v -5.07 l -3.27,-1.74 -6.41,4.08 4.69,-11.9 -4.52,-6.81 c 1.79,-14.98 0.2,-30.27 -5.23,-44.38 4.67,-17.38 9.93,-34.63 13.28,-52.33 l -6.46,13.25 h -11.56 c 29.29,-35.45 29.11,-81.56 29.11,-125.14 0,-18.67 9.46,-35.91 8.93,-54.64 l -2.33,9.58 h -13.47 c 1.67,-11.82 2,-23.78 2.3,-35.7 l 4.18,4.92 c 1.28,-16.62 0.65,-33.29 0.76,-49.94 -9.62,-1.34 -19.67,-1.09 -28.49,3.41 v -21.08 l 7.88,-6.57 v -6.98 l -8.54,4.56 c 2.59,-10.44 11.28,-30.23 -4.96,-34.04 v -9.87 c 8.96,-11.61 14.39,-25.43 19.12,-39.18 l -4.16,-4.37 c 7.63,-6.7 4.32,-41.77 4.16,-52.3 l -4.88,-4.26 c -1.16,-13.55 -3.66,-45.27 4.88,-56.06 -10.15,-45.08 12.34,-51.89 8.87,-86.7 -13.71,6.47 -15.04,31.92 -22.56,43.97 -0.11,-1.4 -1.36,-22.67 3.94,-18.21 l -4.88,-7.32 c 0.4,-47.83 43.29,-56.1 34.66,-122.17 l 8.29,4.14 0.93,-6.28 -10.97,-10.97 -8.34,3.37 4.68,-11.9 -4.34,-6.81 v -46.79 l -14.42,-1.96 v -30.31 l 4.14,-4.32 -4.59,-4.96 c 23.57,-36.57 33.84,-79.73 39.54,-122.37 h 10.6 c 2.24,7.83 2.29,16.11 5.1,23.8 8.18,-85.18 72.58,-153.1 144.11,-195.13 l 5.03,-26.97 -7.26,-135.02 -2.41,-3.12 1.54,-2.75 -1.98,-13.39 c -3.32,-4.96 -1.77,-11.98 -1.77,-11.98 l -3,-20.32 73.53,5.96 -0.6,3.12 c 0.82,-0.11 1.65,-0.23 2.46,-0.39 -0.03,32 -9.34,149.15 -9.24,181.16 l 4.88,3.05 -4.88,4.88 4.88,12.18 -4.91,11.33 c 26.61,23.53 68.58,29.86 83.97,65.13 h 6.42 l -9.27,-18.39 c 17.09,11.53 18.78,34.25 30.97,49.58 -0.05,63.01 8.86,48.97 25.85,101.21 l 7.28,-4.91 c 19.78,48.22 41.47,98.12 40.04,151.32 l -4.85,3.05 4.87,7.31 c -5.06,5.57 -9.56,12.27 -10.46,19.92 h -10.92 l -6.2,-9.08 -6.54,8.66 c -0.05,18.79 3.51,38.08 14.38,53.77 h -21.03 c -0.73,-6.77 -3.88,-13.07 -7.98,-18.43 0.13,54.19 50.42,113.56 48.24,145.82 h -7.91 c -2.58,17.83 -17.22,38.81 7.79,47.54 5.35,10.27 6.58,23.81 5.01,35.16 l -7.46,-4.36 -7.37,1.81 4.36,1.43 v 11.37 c -6.53,-4.73 -10.3,-12.1 -13.26,-19.4 -0.42,19.91 0.25,42.75 14.47,58.32 -12.77,18.57 -19.32,37.16 -5.05,57.19 l -8.35,1.5 -4.43,-5.53 c -0.9,17.8 -2.41,35.68 -6.54,53.06 6.49,21.44 0.09,45.1 9.75,65.81 -14.67,26.21 -10.07,32.41 4.34,56.6 v 9.95 l -7.71,-4.9 c -4.03,20.6 -11.59,44.43 2.47,63.01 v 20.24 c -7.46,-5.19 -11.43,-13.61 -16.11,-21.1 0.34,-14.24 5.48,-34.35 -9.44,-43.3 l 3.83,-18.85 c -4.54,4.72 -9.02,11.64 -6.8,18.47 -7.26,2.88 -12.94,8.37 -19.48,12.47 -0.07,37.72 -3.84,46.92 24,75.89 v 14.98 l -8.29,-4.49 c -1.61,8.85 2.77,17.37 8.73,23.63 v 47.85 l -4.79,3.05 4.47,2.44 v 24.97 l -7.84,-4.77 c -1.57,8.03 -3.89,15.89 -6.38,23.67 l 9.75,26.82 -9.75,36.56 4.88,12.19 -4.88,4.87 4.88,7.32 -4.97,7.02 v 31.37 l 4.26,0.1 -4.25,5.38 v 71.01 l 4.96,6.99 -4.97,7.03 c 0.24,19.76 3.53,36.11 -10.22,52.62 -1.48,-8.02 -2.04,-16.18 -2.2,-24.32 -3.43,8.39 -7.65,16.43 -12,24.38 l -9.22,-14.65 c -0.8,10.29 3.81,20.17 9.31,28.58 -0.11,21.61 -5.3,45.93 9.8,64.08 l -4.88,10.97 c 6.02,15.2 14.68,30.57 13.68,47.46 l -12.01,-9.8 c -8.42,11.17 -10.93,33.94 2.67,42.79 v 39.54 l -4.34,4.32 4.88,14.62 c -9.87,8.91 -5.39,54.94 -5.25,68.8 l -4.5,4.33 4.08,4.37 v 11.19 h -7.74 l -4.5,-5.18 c -1.76,16.3 -6.49,32.19 -7.18,48.63 l -8.1,-4.35 c -1.14,6.51 -2.35,14.87 3.91,19.3 -9.83,12.53 -14.67,32.95 0.01,43.97 l -9.73,13.7 9.56,14.34 -7.52,-3.41 -11.8,10.03 c 5.02,7.02 5.27,16.07 9.62,23.42 v 41.28 l 5.01,6.96 -4.87,9.75 9.75,26.81 -4.88,12.19 4.46,4.37 v 48.79 l -14.21,22.4 4.88,9.75 -10.68,13.23 -7.15,-14.57 -6.55,9.57 c 3.06,17.75 1.02,40.15 -9.75,55.15 l 14.63,31.69 -4.88,9.75 c 7.49,15.76 19.5,35.84 19.5,53.62 0,12.1 -35.27,29.56 -5.19,48.78 l -4.56,9.72 4.03,4.37 v 10.99 c -14.9,-1.12 -16.11,19.05 -15.01,29.42 l -13,-9.47 c -1.22,16.08 0.68,32.16 1.38,48.21 h -12.82 c -4.93,-7.52 -5.68,-17.14 -11.82,-23.94 h -10.55 c -1.42,12.25 1.44,24.52 9.04,34.34 -14.42,17.85 6.07,51.32 14.63,68.11 -29.41,35.48 -29.51,91.7 -29.45,135.46 -14.35,8.5 -7.04,70.37 -25.54,93.13 h -10.49 v -37.52 c -9.73,-9.3 -18.13,-19.86 -26.76,-30.16 -2.23,11.34 2.63,21.96 4.49,32.94 2.49,14.78 -27.75,76.93 -35.53,93.61 z M 3133.8,4404.7 c -1.28,-16.85 -12.92,-57.13 -0.37,-70.11 h 14.66 c 2,24.28 1.07,49.91 -14.29,70.11"/><path style="fill:#4c4237;fill-opacity:1;fill-rule:nonzero;stroke:none" id="path82" d="m 3160.73,4049.87 10.91,-4.59 v -25.49 c -19.5,0.97 -6.34,-21.31 -20.42,-29.72 -0.55,20.27 13.62,39.56 9.51,59.8 z m -336.27,49.61 -4.05,-27.19 c -0.2,-1.29 0.97,20.93 4.05,27.19 z m 5.99,52.91 5.23,-5.91 v -24.27 l -8.46,4.35 -7.54,-4.35 4.16,10.25 -4.17,4.26 v 15.67 z m 306.52,258.99 10.78,-11.7 v -23.89 h -10.78 z m -326.81,394.99 c 24.95,-38.01 30.48,-14.89 30.39,-69.91 l -9.51,-1.25 3.76,-13.77 c -8.62,4.13 -13.14,14.22 -15.83,22.84 l 4.87,4.88 -6.54,11.09 -11.78,-9.74 v 16.21 c 7.21,-0.14 5.09,33.92 4.64,39.65 z m 88.54,764.22 c 0.96,-22.32 14.53,-46.55 25.09,-65.8 l -10.15,-13.38 c -7.15,12.59 -6.3,35.29 -18.81,43.86 l -6.9,-4.18 -4.95,4.96 c 0.83,10.82 8.32,25.05 -0.23,34.54 z m 273.62,-1394.57 c 0.9,-7.86 1.65,-15.72 1.66,-23.55 l -6.48,5.98 z m -181,1755.67 h -11.03 c 1.64,-13.29 -0.67,-28.95 -14.84,-34.28 v -27.61 l 3.92,-3.79 V 5854 c -8.37,1.74 -9.31,12.1 -16.7,16.39 v 31.84 c -5.33,3.06 -10.22,6.82 -14.95,10.73 -2.49,-6.17 -5.34,-12.47 -11.31,-16.03 7.8,-29.5 -13.5,-39.43 4.91,-71.13 h -7.11 l -1.33,8.73 c -12.09,-1.49 -8.27,-16.29 -12.46,-24.14 l -1.97,4.38 h -11.2 c -0.02,-16.39 10.24,-32.39 8.63,-48.41 h -5.51 l -10.71,12.64 c 1.55,-6.16 2.63,-12.45 3.15,-18.79 l 14.28,-6.87 -9.76,-1.86 c 0.07,-17.05 25.99,-71.95 0.42,-77.94 -8.71,-28.83 -12.25,-61.56 -34.81,-83.72 0.02,-39.06 -0.25,-46.2 -14.72,-82.6 3.62,-10.7 17.27,-42.89 14.63,-52.41 l -13.69,14.57 c 0.13,-15.92 26.63,-60.57 -0.21,-64.12 v -15.65 l 7.74,4.63 c 5.13,-11.6 6.04,-26.06 16.88,-34.28 l 2.97,9.73 c 0.56,-7.53 0.73,-15.17 -0.57,-22.64 l -7.54,4.68 -1.36,-28.63 c -3.04,5.65 -7.3,10.72 -12.47,14.53 -1.34,-12.65 -3.74,-25.16 -6.38,-37.59 l 4.89,-8.78 c -2.18,-5.24 -9.18,-7.41 -14.31,-8.27 7.56,-14.71 -1.62,-20.16 -0.33,-34.14 1.85,-20.08 10.53,-38.9 14.63,-58.5 4.26,-20.41 -28.43,-11.01 -14.63,-46.31 -4.93,-16.56 -9.75,-33.32 -11.36,-50.59 l -7.72,4.42 9.33,-31.83 -6.16,-11.34 -1.87,9.32 h -11.19 v -42.47 l -4.44,-1.32 c 7.08,-5.26 4.32,-38.09 4.24,-47.18 -6.82,-1.23 -12.82,0.71 -18.83,3.83 v -18.7 l 4.12,-4.27 v -44.48 l 4.88,-4.27 v -29.86 l 4.9,-4.26 v -5.61 l -6.12,-0.49 -6.81,4.1 h -16.04 c -3.68,-14.5 7.25,-41.23 14.32,-54.07 -5.31,-10.2 -6.06,-26.53 0,-36.56 -2.29,-6.52 -5.33,-12.92 -9.75,-18.28 l 4.88,-13.41 -1.78,-8.62 c -5.14,9.77 -6,23.1 -16.79,28.82 3.15,-11.52 3.95,-23.46 4.65,-35.33 l 9.23,-1.65 -9.59,-2.21 c -0.03,-29.49 22.95,-60.55 14.28,-88.26 2.54,-9.38 23.6,-65.29 10.06,-67.84 v -42.76 l -6.47,-10.29 h -10.19 l -6.53,9.8 -6.26,-11.25 c 12.95,-27.04 32.73,-31.94 27.85,-66.93 l -7.75,4.52 c -0.65,-6.81 -3.7,-13.29 -7.64,-18.81 l -1.77,14.41 c -30.02,-19.3 -6.92,-66.1 -2.12,-92.62 l -11.89,14.74 c -0.3,-11.51 -0.38,-25.4 -15.79,-24.92 v -10.14 c 8.95,-10.76 12.37,-24.84 15.33,-38.2 31.8,-31.61 26.91,1.57 27.18,-58.95 l -3.08,10.27 c -6.04,-4.41 -10.38,-10.55 -15.47,-15.95 -0.01,-23.42 -9.84,-45.36 -9.84,-67.96 0,-25.23 11.37,-43.86 9.33,-71.94 -3.83,9.53 -11.92,16.44 -18.14,24.35 -0.11,-7.8 -3.35,-33.29 3.94,-37.72 -6.1,-21.63 -8.69,-32.59 9.85,-48.53 1.13,-10.23 2.4,-37.93 -5.13,-45.32 -13.57,23.14 -27.54,46.08 -42.75,68.18 v -20.15 c 15.92,-26.03 18.9,-59.91 43.01,-80.73 -5.93,-21.72 8.36,-55.55 18.99,-74.77 -11.63,10.8 -19.55,25.29 -33.03,34.11 -0.07,-25.25 19.35,-46.66 32.85,-66.26 v -6.98 l -13.28,9.44 c 5.23,-9.74 9.27,-21.05 19.02,-27.3 l -9.75,-2.58 c 14.58,-24.31 31.73,-46.93 48.58,-69.7 v -37.26 c 5.56,-5.66 12.23,-10.2 19.38,-13.62 -3.34,6.97 -7.62,13.44 -12.19,19.65 l 10.15,7.2 c 39.63,-41.2 63.48,-100.41 117.99,-124 l 7.48,-88.93 -1.39,-6.79 1.34,-37.8 -3.06,-23.95 0.91,0.03 -0.68,-5.86 13.4,-1.49 31.55,7.74 0.01,1.15 1.29,0.05 19.79,-14.19 -12.31,88.43 5.34,87.59 -0.5,11.44 c 25.77,26.38 65.17,44.92 68.72,87.68 l 1.51,-9.83 h 10.38 c 11.57,16.87 45.65,48.08 30.33,70.3 7.28,8.65 14.04,17.71 20.6,26.9 l 2.06,-9.45 h 10.38 c 14.32,21 28.44,42.21 40.06,64.85 l -5.17,19.88 -3.78,-9.85 c -2.38,27.54 -1.37,21.67 13.62,42.62 l -9.63,2.31 v 5.84 l 9.16,1.26 c 7.09,6.82 5.98,36.52 5.02,45.21 h -8.48 l -0.71,4.04 4.52,4.37 v 34.02 l 4.43,0.11 v 10.91 l -8.02,-4.5 c -2.31,12.82 -2.28,27.52 3.95,39.3 -0.14,0.89 -4.57,33.16 -3.68,21.15 1.24,-16.67 -14.82,-26.13 -19.19,-40.95 l -11.43,10.87 v 39.63 l 6.71,5.87 6.45,-14.61 c 3.83,22.3 5.61,46.65 20.63,64.83 v 15.19 h -8.02 l -5.16,-4.78 c -2.67,7.29 0.59,16.79 3.94,23.34 l -4.87,7.32 c 0.11,15.63 8.57,44.25 18.55,56.34 v 15.45 c -5.82,-3.14 -10.92,-8.43 -12.67,-14.94 h -10.64 l 0.52,19.08 h -12.24 l 4.29,-10.12 c -2.37,-6.45 -7.5,-12.51 -14.35,-14.29 -2.28,-16.08 0.1,-32.28 1.96,-48.45 -14.08,45.9 -7.26,52.87 6.5,96.11 l 2.42,-9.98 c 22.95,15.78 22.76,46.37 15.47,70.44 l -4.37,-14.63 c 3.84,22.06 8.53,83.27 -5.19,103.61 l 4.87,7.31 -14.62,19.51 c 23.63,49.44 -27.99,54.49 -0.09,98.09 l -4.95,39.62 -4.32,-9.78 c -2.82,7.95 5.28,23.62 9.36,30.5 l -10.43,13.31 c -2.84,-7.65 -8.86,-13.25 -13.95,-19.4 v 3.65 l 4.07,4.37 v 10.92 l -8.96,0.81 c 11.94,17.03 19.44,50.95 19.52,71.66 l -4.89,6.26 c 8.3,9.82 15.13,21.03 18.41,33.55 -7.26,-4.88 -11.07,-13.01 -16.9,-19.28 l -6.74,6.34 4.53,1.87 -9.97,11.29 -2.53,-14.66 -6.73,1.62 c 10.31,24.75 26.62,53.16 -4.43,70.51 0.05,23.59 15.57,42.88 24,63.9 H 3147 c -5.34,-4.89 -6.18,-12.46 -7.54,-19.16 l -11.2,1.47 c 6.57,7.03 10.57,16 14.9,24.48 l -4.91,8.92 9.63,8.49 c -3.91,11.21 -4.8,23.1 -6.22,34.8 l -7.23,-9.79 c -1.2,9.04 -1.2,18.23 0,27.26 l 7.23,-9.78 c 1.81,7.24 5.25,14.57 1.11,21.72 l -4.09,-9.75 c -0.92,19.64 14.81,49.32 23.78,66.81 -8.88,3.78 -23.57,24.75 -24.17,34.38 l 4.13,4.36 v 35.47 h -8.3 c -1.16,11.41 -4.02,17.71 8.38,23.43 v 10.55 l -7.59,-4.47 h -5.84 c -1.78,12.52 0.27,10.96 9.15,17.74 -20.19,3.03 -15.43,18.89 -5.11,30.2 v 38.86 c -14.09,7.07 -16.68,25.43 -14.89,39.5 h -8.08 c -3.33,26.7 7.47,26.3 8.12,44.51 l -8.83,-9.84 c -1.7,14.25 13.38,24.76 14.21,38.57 2.06,34.53 -15.91,67.78 -10.12,102.46 h -8.65 c -1.54,16.03 -2.42,35.07 8.52,48.26 v 14.92 h -9.51 c -0.14,23.41 -1.67,29.62 7.27,51.78 0.21,-8.3 1.37,-16.92 5.19,-24.4 7.43,16.72 17.27,32.64 20.81,50.81 -6.67,-4.13 -10.11,-12.18 -12.22,-19.42 l -6.41,6.46 v 49.02 l 5.14,6.98 -4.87,12.19 c 6.67,25.76 1.54,27.89 -1.43,52.18 -6.52,-4.33 -9.82,-12.36 -11.93,-19.59 h -9.79 c -7.43,31.68 -0.98,47.37 8.09,77.25 l -13.66,-3.94 c 9.23,38.04 -40.54,67.71 -10.71,101.57 v 9.92 c -4.43,2.41 -8.8,5.87 -11.13,10.43 -7.41,-6.38 -13.74,-14 -21.87,-19.52 -2.46,28.57 14.46,33.06 13.92,49.04 -0.66,19.35 -4.19,38.6 -5.92,57.87 -8.31,-2.17 -12.55,-11.89 -20.5,-15.22 v -31.87 l -11.42,-11.34 h -4.74 c -1.49,19.92 -6.71,39.29 -11.98,58.47 h -12.55 l -1.85,14.15"/><text style="font-style:normal;font-weight:400;font-size:1100px;line-height:1.25;fill-opacity:1;stroke:none;stroke-width:7.5" id="text170" x="4032.698" y="-3919.835" transform="scale(1,-1)" xml:space="preserve"><tspan id="tspan168" x="3832.698" y="-3819.835" style="font-size:1100px;stroke-width:7.5;fill:#fff">La Colonica</tspan></text></g></g></svg>